<?xml version="1.0" encoding="utf-8"?>
<!-- Generator: Adobe Illustrator 25.1.0, SVG Export Plug-In . SVG Version: 6.00 Build 0)  -->
<svg version="1.1" id="Layer_1" xmlns="http://www.w3.org/2000/svg" xmlns:xlink="http://www.w3.org/1999/xlink" x="0px" y="0px"
	 viewBox="0 0 1159 771" style="enable-background:new 0 0 1159 771;" xml:space="preserve">
<style type="text/css">
	.st0{fill:#FFFFFF;}
	.st1{fill:#D9D9D9;}
	.st2{opacity:0.5;}
	.st3{fill:#1E6FC0;}
	.st4{fill:#0AAE4F;}
	.st5{fill:#FE9D1B;}
	.st6{fill:#FFBA61;}
	.st7{fill:#0E753E;}
	.st8{fill:#B10E1F;}
	.st9{fill:#A4A4A4;}
	.st10{fill:#C96505;}
	.st11{fill:#EA880B;}
	.st12{clip-path:url(#SVGID_2_);}
	.st13{fill:#022859;}
	.st14{opacity:0.6;}
	.st15{fill:#F9966C;}
	.st16{fill:#EC7451;}
	.st17{fill:#F0393B;}
	.st18{fill:#3F2423;}
	.st19{fill:#111111;}
	.st20{fill:#009E3F;}
	.st21{fill:#FFABAE;}
	.st22{fill:#190E0E;}
	.st23{fill:#F08D5F;}
	.st24{fill:#0C3B81;}
	.st25{fill:#EBEBEB;}
	.st26{fill:#848484;}
	.st27{fill:#686868;}
	.st28{fill:#F87271;}
</style>
<g id="Background">
	<g>
		<rect class="st0" width="1159" height="771"/>
	</g>
</g>
<g>
	<g>
		<g>
			<path class="st1" d="M516.6,373.2H132.2c-6.6,0-12-5.4-12-12V118.9c0-6.6,5.4-12,12-12h384.4c6.6,0,12,5.4,12,12v242.4
				C528.6,367.8,523.2,373.2,516.6,373.2z"/>
		</g>
		<g>
			<path class="st1" d="M1026.8,393.8H637.5c-6.6,0-12-5.4-12-12V157c0-6.6,5.4-12,12-12h389.3c6.6,0,12,5.4,12,12v224.8
				C1038.8,388.4,1033.4,393.8,1026.8,393.8z"/>
		</g>
		<g>
			<g class="st2">
				<path class="st0" d="M392.2,249.1H247.4c-2.2,0-4-1.8-4-4v-70.8c0-2.2,1.8-4,4-4h144.8c2.2,0,4,1.8,4,4v70.8
					C396.2,247.3,394.4,249.1,392.2,249.1z"/>
			</g>
			<g>
				<g>
					<path class="st0" d="M431.8,270.2l-48.7-14.5c-1.3-0.4-2-1.7-1.6-3l12.7-42.6c0.4-1.3,1.7-2,3-1.6l48.7,14.5
						c1.3,0.4,2,1.7,1.6,3l-12.7,42.6C434.4,269.9,433.1,270.6,431.8,270.2z"/>
				</g>
				<g>
					
						<rect x="426.6" y="223.5" transform="matrix(0.2851 -0.9585 0.9585 0.2851 80.3855 578.4287)" class="st3" width="2.7" height="23.6"/>
				</g>
				<g>
					
						<rect x="424" y="230.4" transform="matrix(0.2851 -0.9585 0.9585 0.2851 72.3616 581.3726)" class="st3" width="3.9" height="23.6"/>
				</g>
				<g>
					
						<rect x="419.9" y="239.2" transform="matrix(0.2851 -0.9585 0.9585 0.2851 62.8699 582.3199)" class="st3" width="3.9" height="19.6"/>
				</g>
				<g>
					<path class="st3" d="M398.2,238.2c-0.1,0-0.2,0-0.3-0.1c-0.3-0.1-0.5-0.3-0.6-0.6l-1.6-4.3c-0.2-0.5,0.1-1.1,0.6-1.3
						c0.5-0.2,1.1,0.1,1.3,0.6l1.1,3.2l6-3.9c0.5-0.3,1.1-0.2,1.4,0.3c0.3,0.5,0.2,1.1-0.3,1.4l-7.1,4.5
						C398.5,238.2,398.4,238.2,398.2,238.2z"/>
				</g>
				<g>
					<path class="st3" d="M400.2,231.4c-0.1,0-0.2,0-0.3-0.1c-0.3-0.1-0.5-0.3-0.6-0.6l-1.6-4.3c-0.2-0.5,0.1-1.1,0.6-1.3
						c0.5-0.2,1.1,0.1,1.3,0.6l1.1,3.2l6-3.9c0.5-0.3,1.1-0.2,1.4,0.3c0.3,0.5,0.2,1.1-0.3,1.4l-7.1,4.5
						C400.6,231.3,400.4,231.4,400.2,231.4z"/>
				</g>
				<g>
					<path class="st3" d="M396,245.6c-0.1,0-0.2,0-0.3-0.1c-0.3-0.1-0.5-0.3-0.6-0.6l-1.6-4.3c-0.2-0.5,0.1-1.1,0.6-1.3
						c0.5-0.2,1.1,0.1,1.3,0.6l1.1,3.2l6-3.9c0.5-0.3,1.1-0.2,1.4,0.3c0.3,0.5,0.2,1.1-0.3,1.4l-7.1,4.5
						C396.3,245.6,396.2,245.6,396,245.6z"/>
				</g>
				<g>
					
						<rect x="415.3" y="213.3" transform="matrix(0.2851 -0.9585 0.9585 0.2851 94.4777 558.2379)" class="st3" width="12.4" height="4.9"/>
				</g>
			</g>
			<g>
				<g>
					<path class="st0" d="M209.7,251.6h-50.8c-1.3,0-2.4-1.1-2.4-2.4v-44.4c0-1.3,1.1-2.4,2.4-2.4l50.8,0c1.3,0,2.4,1.1,2.4,2.4
						l0,44.4C212.1,250.5,211,251.6,209.7,251.6z"/>
				</g>
				<g>
					<rect x="184.3" y="217.9" class="st4" width="23.6" height="2.7"/>
				</g>
				<g>
					<rect x="184.3" y="224.4" class="st4" width="23.6" height="3.9"/>
				</g>
				<g>
					<rect x="184.3" y="232.2" class="st4" width="19.6" height="3.9"/>
				</g>
				<g>
					<path class="st4" d="M168.1,230.5C168,230.5,168,230.5,168.1,230.5c-0.3,0-0.6-0.2-0.8-0.4l-2.7-3.7c-0.3-0.4-0.2-1.1,0.2-1.4
						c0.4-0.3,1.1-0.2,1.4,0.2l2,2.7l4.7-5.4c0.4-0.4,1-0.5,1.4-0.1c0.4,0.4,0.5,1,0.1,1.4l-5.5,6.4
						C168.6,230.4,168.3,230.5,168.1,230.5z"/>
				</g>
				<g>
					<path class="st4" d="M168.1,223.4C168,223.4,168,223.4,168.1,223.4c-0.3,0-0.6-0.2-0.8-0.4l-2.7-3.7c-0.3-0.4-0.2-1.1,0.2-1.4
						c0.4-0.3,1.1-0.2,1.4,0.2l2,2.7l4.7-5.4c0.4-0.4,1-0.5,1.4-0.1c0.4,0.4,0.5,1,0.1,1.4l-5.5,6.4
						C168.6,223.3,168.3,223.4,168.1,223.4z"/>
				</g>
				<g>
					<path class="st4" d="M168.1,238.3C168,238.3,168,238.3,168.1,238.3c-0.3,0-0.6-0.2-0.8-0.4l-2.7-3.7c-0.3-0.4-0.2-1.1,0.2-1.4
						c0.4-0.3,1.1-0.2,1.4,0.2l2,2.7l4.7-5.4c0.4-0.4,1-0.5,1.4-0.1c0.4,0.4,0.5,1,0.1,1.4l-5.5,6.4
						C168.6,238.1,168.3,238.3,168.1,238.3z"/>
				</g>
				<g>
					<rect x="181.8" y="196.1" class="st4" width="4.9" height="12.4"/>
				</g>
			</g>
			<g>
				<g>
					<path class="st0" d="M198.7,185.4h-53.6c-1.3,0-2.3-1-2.3-2.3v-40.4c0-1.3,1-2.3,2.3-2.3h53.6c1.3,0,2.3,1,2.3,2.3v40.4
						C201,184.4,200,185.4,198.7,185.4z"/>
				</g>
				<g>
					<rect x="153.9" y="153.7" class="st3" width="36" height="2.5"/>
				</g>
				<g>
					<rect x="153.9" y="159.1" class="st3" width="36" height="2.5"/>
				</g>
				<g>
					<rect x="153.9" y="164.6" class="st3" width="36" height="2.5"/>
				</g>
				<g>
					<rect x="153.9" y="170" class="st3" width="36" height="2.5"/>
				</g>
				<g>
					<rect x="169.7" y="134.7" class="st3" width="4.5" height="11.4"/>
				</g>
			</g>
			<g>
				<g>
					<path class="st0" d="M501.9,323.8l-58.1,9c-1.3,0.2-2.5-0.7-2.8-2l-6.8-43.9c-0.2-1.3,0.7-2.5,2-2.8l58.1-9
						c1.3-0.2,2.6,0.7,2.8,2l6.8,43.9C504.1,322.4,503.2,323.6,501.9,323.8z"/>
				</g>
				<g>
					
						<rect x="448" y="294.1" transform="matrix(0.9882 -0.1533 0.1533 0.9882 -39.7588 75.1888)" class="st5" width="39.4" height="2.7"/>
				</g>
				<g>
					
						<rect x="448.9" y="299.9" transform="matrix(0.9882 -0.1533 0.1533 0.9882 -40.6506 75.4008)" class="st5" width="39.4" height="2.7"/>
				</g>
				<g>
					
						<rect x="449.8" y="305.8" transform="matrix(0.9882 -0.1533 0.1533 0.9882 -41.5402 75.6076)" class="st5" width="39.4" height="2.7"/>
				</g>
				<g>
					
						<rect x="450.7" y="311.7" transform="matrix(0.9882 -0.1533 0.1533 0.9882 -42.4316 75.8184)" class="st5" width="39.4" height="2.7"/>
				</g>
				<g>
					
						<rect x="462.9" y="273.5" transform="matrix(0.9882 -0.1533 0.1533 0.9882 -37.3826 74.6555)" class="st5" width="4.9" height="12.4"/>
				</g>
			</g>
			<g>
				<path class="st3" d="M455.5,143.4H275.4c-0.2,0-0.3-0.1-0.3-0.3v-5.2c0-0.2,0.1-0.3,0.3-0.3h180.2c0.2,0,0.3,0.1,0.3,0.3v5.2
					C455.8,143.2,455.7,143.4,455.5,143.4z"/>
			</g>
			<g>
				<path class="st0" d="M465.3,154.9h-81.4c-0.1,0-0.1-0.1-0.1-0.1v-2.6c0-0.1,0.1-0.1,0.1-0.1h81.4c0.1,0,0.1,0.1,0.1,0.1v2.6
					C465.5,154.8,465.4,154.9,465.3,154.9z"/>
			</g>
			<g class="st2">
				<path class="st0" d="M333.9,345.3H193.1c-2,0-3.6-1.6-3.6-3.6v-63.9c0-2,1.6-3.6,3.6-3.6h140.8c2,0,3.6,1.6,3.6,3.6v63.9
					C337.6,343.7,335.9,345.3,333.9,345.3z"/>
			</g>
			<g>
				<g>
					<circle class="st5" cx="241.9" cy="273.7" r="6.3"/>
				</g>
				<g>
					<path class="st6" d="M249.1,274.6c0,3.5-2.8,6.3-6.3,6.3c-3.5,0-6.3-2.8-6.3-6.3c0-3.5,2.8-6.3,6.3-6.3
						C246.3,268.4,249.1,271.2,249.1,274.6z"/>
				</g>
			</g>
			<g>
				<g>
					<path class="st7" d="M351,169.8c0,3.5-2.8,6.3-6.3,6.3c-3.5,0-6.3-2.8-6.3-6.3c0-3.5,2.8-6.3,6.3-6.3
						C348.2,163.6,351,166.4,351,169.8z"/>
				</g>
				<g>
					<circle class="st4" cx="345.7" cy="170.8" r="6.3"/>
				</g>
			</g>
		</g>
		<g>
			<g>
				<g>
					<path class="st0" d="M1005.3,220.5l-45.6-6.5c-1.2-0.2-2.1-1.3-1.9-2.6l5.7-39.8c0.2-1.2,1.3-2.1,2.6-1.9l45.6,6.5
						c1.2,0.2,2.1,1.3,1.9,2.6l-5.7,39.8C1007.7,219.8,1006.5,220.6,1005.3,220.5z"/>
				</g>
				<g>
					
						<rect x="996" y="178.9" transform="matrix(0.1409 -0.99 0.99 0.1409 669.0534 1150.2019)" class="st3" width="2.5" height="21.4"/>
				</g>
				<g>
					
						<rect x="994.6" y="185.3" transform="matrix(0.1409 -0.99 0.99 0.1409 661.8976 1154.8271)" class="st3" width="3.5" height="21.4"/>
				</g>
				<g>
					
						<rect x="991.8" y="193.8" transform="matrix(0.1409 -0.99 0.99 0.1409 652.8677 1157.8289)" class="st3" width="3.5" height="17.8"/>
				</g>
				<g>
					<path class="st3" d="M970.7,196.3c-0.1,0-0.1,0-0.2,0c-0.3-0.1-0.6-0.2-0.7-0.5l-2-3.7c-0.3-0.5-0.1-1.1,0.4-1.4
						c0.5-0.3,1.1-0.1,1.4,0.4l1.4,2.6l4.8-4.2c0.4-0.4,1-0.3,1.4,0.1c0.4,0.4,0.3,1-0.1,1.4l-5.7,5
						C971.2,196.2,970.9,196.3,970.7,196.3z"/>
				</g>
				<g>
					<path class="st3" d="M971.6,189.9c-0.1,0-0.1,0-0.2,0c-0.3-0.1-0.6-0.2-0.7-0.5l-2-3.7c-0.3-0.5-0.1-1.1,0.4-1.4
						c0.5-0.3,1.1-0.1,1.4,0.4l1.4,2.6l4.8-4.2c0.4-0.4,1-0.3,1.4,0.1c0.4,0.4,0.3,1-0.1,1.4l-5.7,5
						C972.1,189.8,971.9,189.9,971.6,189.9z"/>
				</g>
				<g>
					<path class="st3" d="M969.7,203.3c-0.1,0-0.1,0-0.2,0c-0.3-0.1-0.6-0.2-0.7-0.5l-2-3.7c-0.3-0.5-0.1-1.1,0.4-1.4
						c0.5-0.3,1.1-0.1,1.4,0.4l1.4,2.6l4.8-4.2c0.4-0.4,1-0.3,1.4,0.1c0.4,0.4,0.3,1-0.1,1.4l-5.7,5
						C970.2,203.2,969.9,203.3,969.7,203.3z"/>
				</g>
				<g>
					
						<rect x="983.1" y="170.7" transform="matrix(0.1408 -0.99 0.99 0.1408 678.3745 1127.4833)" class="st3" width="11.3" height="4.5"/>
				</g>
			</g>
			<g>
				<g>
					<path class="st0" d="M999,320.6l-45.6-6.5c-1.2-0.2-2.1-1.3-1.9-2.6l5.7-39.8c0.2-1.2,1.3-2.1,2.6-1.9l45.6,6.5
						c1.2,0.2,2.1,1.3,1.9,2.6l-5.7,39.8C1001.4,319.9,1000.2,320.8,999,320.6z"/>
				</g>
				<g>
					
						<rect x="989.7" y="279.1" transform="matrix(0.1409 -0.99 0.99 0.1409 564.4214 1229.9836)" class="st4" width="2.5" height="21.4"/>
				</g>
				<g>
					
						<rect x="988.2" y="285.5" transform="matrix(0.1409 -0.99 0.99 0.1409 557.2561 1234.6052)" class="st4" width="3.5" height="21.4"/>
				</g>
				<g>
					
						<rect x="985.4" y="294" transform="matrix(0.1409 -0.99 0.99 0.1409 548.2295 1237.6079)" class="st4" width="3.5" height="17.8"/>
				</g>
				<g>
					<path class="st4" d="M964.3,296.5c-0.1,0-0.1,0-0.2,0c-0.3-0.1-0.6-0.2-0.7-0.5l-2-3.7c-0.3-0.5-0.1-1.1,0.4-1.4
						c0.5-0.3,1.1-0.1,1.4,0.4l1.4,2.6l4.8-4.2c0.4-0.4,1-0.3,1.4,0.1c0.4,0.4,0.3,1-0.1,1.4l-5.7,5
						C964.8,296.4,964.6,296.5,964.3,296.5z"/>
				</g>
				<g>
					<path class="st4" d="M965.3,290.1c-0.1,0-0.1,0-0.2,0c-0.3-0.1-0.6-0.2-0.7-0.5l-2-3.7c-0.3-0.5-0.1-1.1,0.4-1.4
						c0.5-0.3,1.1-0.1,1.4,0.4l1.4,2.6l4.8-4.2c0.4-0.4,1-0.3,1.4,0.1c0.4,0.4,0.3,1-0.1,1.4l-5.7,5
						C965.7,290,965.5,290.1,965.3,290.1z"/>
				</g>
				<g>
					<path class="st4" d="M963.4,303.5c-0.1,0-0.1,0-0.2,0c-0.3-0.1-0.6-0.2-0.7-0.5l-2-3.7c-0.3-0.5-0.1-1.1,0.4-1.4
						c0.5-0.3,1.1-0.1,1.4,0.4l1.4,2.6l4.8-4.2c0.4-0.4,1-0.3,1.4,0.1c0.4,0.4,0.3,1-0.1,1.4l-5.7,5
						C963.8,303.4,963.6,303.5,963.4,303.5z"/>
				</g>
				<g>
					
						<rect x="976.8" y="270.8" transform="matrix(0.1409 -0.99 0.99 0.1409 573.6935 1207.2473)" class="st4" width="11.3" height="4.5"/>
				</g>
			</g>
			<g>
				<path class="st8" d="M809.2,169.4H645.7c-0.2,0-0.4-0.2-0.4-0.4v-6.5c0-0.2,0.2-0.4,0.4-0.4h163.5c0.2,0,0.4,0.2,0.4,0.4v6.5
					C809.6,169.2,809.4,169.4,809.2,169.4z"/>
			</g>
			<g>
				<path class="st0" d="M766.1,182H645.5c-0.1,0-0.1-0.1-0.1-0.1v-2.4c0-0.1,0.1-0.1,0.1-0.1h120.6c0.1,0,0.1,0.1,0.1,0.1v2.4
					C766.3,182,766.2,182,766.1,182z"/>
			</g>
			<g>
				<path class="st0" d="M731.8,187.4h-86.3c-0.1,0-0.1-0.1-0.1-0.1v-2.4c0-0.1,0.1-0.1,0.1-0.1h86.3c0.1,0,0.1,0.1,0.1,0.1v2.4
					C732,187.4,731.9,187.4,731.8,187.4z"/>
			</g>
			<g>
				<path class="st0" d="M748.1,192.9H645.5c-0.1,0-0.1-0.1-0.1-0.1v-2.4c0-0.1,0.1-0.1,0.1-0.1h102.6c0.1,0,0.1,0.1,0.1,0.1v2.4
					C748.2,192.8,748.2,192.9,748.1,192.9z"/>
			</g>
			<g>
				<path class="st0" d="M713.8,198.3h-68.3c-0.1,0-0.1-0.1-0.1-0.1v-2.4c0-0.1,0.1-0.1,0.1-0.1h68.3c0.1,0,0.1,0.1,0.1,0.1v2.4
					C713.9,198.2,713.9,198.3,713.8,198.3z"/>
			</g>
			<g>
				<path class="st0" d="M758.9,203.7H645.5c-0.1,0-0.1-0.1-0.1-0.1v-2.4c0-0.1,0.1-0.1,0.1-0.1h113.4c0.1,0,0.1,0.1,0.1,0.1v2.4
					C759,203.6,759,203.7,758.9,203.7z"/>
			</g>
			<g class="st2">
				<path class="st0" d="M775.3,377.2H666.1c-1.8,0-3.3-1.5-3.3-3.3v-58.1c0-1.8,1.5-3.3,3.3-3.3h109.2c1.8,0,3.3,1.5,3.3,3.3v58.1
					C778.6,375.7,777.1,377.2,775.3,377.2z"/>
			</g>
			<g class="st2">
				<path class="st0" d="M817.4,296.3H706.8c-1.8,0-3.3-1.5-3.3-3.3v-58.1c0-1.8,1.5-3.3,3.3-3.3h110.7c1.8,0,3.3,1.5,3.3,3.3v58.1
					C820.7,294.8,819.3,296.3,817.4,296.3z"/>
			</g>
			<g>
				<path class="st9" d="M993.1,356.9H867.2c-0.1,0-0.2-0.1-0.2-0.2v-4.1c0-0.1,0.1-0.2,0.2-0.2h125.9c0.1,0,0.2,0.1,0.2,0.2v4.1
					C993.3,356.8,993.2,356.9,993.1,356.9z"/>
			</g>
			<g>
				<path class="st9" d="M973.3,365h-74.6c-0.1,0-0.1-0.1-0.1-0.1v-2.4c0-0.1,0.1-0.1,0.1-0.1h74.6c0.1,0,0.1,0.1,0.1,0.1v2.4
					C973.4,365,973.4,365,973.3,365z"/>
			</g>
			<g>
				<g>
					<path class="st0" d="M904.1,229.3l-52.7,7.7c-1.2,0.2-2.4-0.7-2.6-1.9l-5.8-39.8c-0.2-1.2,0.7-2.4,1.9-2.6l52.7-7.7
						c1.2-0.2,2.4,0.7,2.6,1.9l5.8,39.8C906.2,227.9,905.3,229.1,904.1,229.3z"/>
				</g>
				<g>
					
						<rect x="855.3" y="201.9" transform="matrix(0.9894 -0.1453 0.1453 0.9894 -20.2515 128.9994)" class="st5" width="35.8" height="2.5"/>
				</g>
				<g>
					
						<rect x="856.1" y="207.3" transform="matrix(0.9894 -0.1453 0.1453 0.9894 -21.021 129.168)" class="st5" width="35.8" height="2.5"/>
				</g>
				<g>
					
						<rect x="856.9" y="212.7" transform="matrix(0.9894 -0.1453 0.1453 0.9894 -21.7907 129.3394)" class="st5" width="35.8" height="2.5"/>
				</g>
				<g>
					
						<rect x="857.7" y="218" transform="matrix(0.9894 -0.1453 0.1453 0.9894 -22.5606 129.5129)" class="st5" width="35.8" height="2.5"/>
				</g>
				<g>
					
						<rect x="869" y="183.2" transform="matrix(0.9894 -0.1453 0.1453 0.9894 -18.1935 128.551)" class="st5" width="4.5" height="11.3"/>
				</g>
			</g>
			<g>
				<g>
					<path class="st7" d="M761.5,231.2c0,3.5,2.8,6.3,6.3,6.3c3.5,0,6.3-2.8,6.3-6.3c0-3.5-2.8-6.3-6.3-6.3
						C764.3,225,761.5,227.8,761.5,231.2z"/>
				</g>
				<g>
					<path class="st4" d="M760.5,232.2c0,3.5,2.8,6.3,6.3,6.3c3.5,0,6.3-2.8,6.3-6.3c0-3.5-2.8-6.3-6.3-6.3
						C763.3,225.9,760.5,228.7,760.5,232.2z"/>
				</g>
			</g>
		</g>
		<g>
			<g>
				<g>
					<path class="st10" d="M168.3,416.2h-4.9c-4.4,0-7.9-3.6-7.9-7.9v-13c0-4.4,3.6-7.9,7.9-7.9h4.9c4.4,0,7.9,3.6,7.9,7.9v13
						C176.2,412.6,172.7,416.2,168.3,416.2z"/>
				</g>
				<g>
					<rect x="155.5" y="395.4" class="st11" width="20.7" height="9.2"/>
				</g>
			</g>
			<g>
				<g>
					
						<ellipse transform="matrix(0.9216 -0.3882 0.3882 0.9216 -133.3161 93.9619)" class="st5" cx="165.9" cy="376.9" rx="23.6" ry="23.6"/>
				</g>
				<g>
					<path class="st6" d="M165.9,373c-4.7,0-8.5,3.8-8.5,8.5c0,0.2,0,0.4,0,0.7h5.9v18.2c0.9,0.1,1.7,0.2,2.6,0.2
						c0.9,0,1.8-0.1,2.6-0.2v-18.2h5.9c0-0.2,0-0.4,0-0.7C174.4,376.8,170.6,373,165.9,373z"/>
				</g>
				<g>
					<path class="st11" d="M165.9,401.5c-13.5,0-24.6-11-24.6-24.6c0-13.5,11-24.6,24.6-24.6c13.5,0,24.6,11,24.6,24.6
						C190.4,390.4,179.4,401.5,165.9,401.5z M165.9,354.3c-12.4,0-22.6,10.1-22.6,22.6c0,12.4,10.1,22.6,22.6,22.6
						c12.4,0,22.6-10.1,22.6-22.6C188.4,364.5,178.3,354.3,165.9,354.3z"/>
				</g>
			</g>
		</g>
	</g>
	<g>
		<defs>
			<rect id="SVGID_1_" x="81.5" y="114.7" width="997" height="547.5"/>
		</defs>
		<clipPath id="SVGID_2_">
			<use xlink:href="#SVGID_1_"  style="overflow:visible;"/>
		</clipPath>
		<g class="st12">
			<g id="rocket">
				<g>
					<g>
						<g>
							<g>
								<g>
									<g>
										<g>
											<path class="st3" d="M619.6,430.9c-0.2,0.6-0.5,1.2-0.8,1.8c-1.6,3-4.1,5.8-7.6,8.2c-2.5,1.8-5.6,3.4-9.1,4.9
												c-5.4,2.2-10,4.7-14,7.2c-2.3,1.4-4.3,2.9-6.2,4.4c-10.9,8.7-15.6,18-19,24.9c-1.3,2.6-2.4,4.8-3.6,6.6
												c-1.7,2.5-3.4,3.7-5.5,4.2c-1,0.2-1.9,0.2-2.7,0c-0.8-0.2-1.5-0.7-2.1-1.5c-4.8-6.3,1.9-30.4,16-57.3
												c7.2-13.8,14.7-22.7,21.2-28.6c3.2-2.8,6.1-5,8.7-6.5c0.3-0.2,0.6-0.4,0.9-0.5c3.9-2.2,6.4-2.8,6.5-2.9l0.2,0l0.1,0.1
												c0,0,0,0,0.1,0.1l0,0c1.5,1.2,9.9,8.3,14.7,17.2c0.2,0.4,0.4,0.7,0.6,1.1C620.5,419.5,621.7,425.3,619.6,430.9z"/>
										</g>
									</g>
								</g>
							</g>
						</g>
					</g>
				</g>
				<g>
					<g>
						<g>
							<g>
								<g>
									<g>
										<g>
											<path class="st3" d="M671.1,527.4c-0.9,0.3-1.7,0.3-2.5,0.1c-0.8-0.2-1.6-0.7-2.3-1.4c-1.5-1.5-2.3-3.5-2.3-6.5
												c-0.1-2.1,0.2-4.6,0.5-7.5c0.8-7.7,1.9-18.1-2.6-31.3c-0.8-2.4-1.8-4.9-3-7.4c-1.9-4.2-4.5-8.6-7.7-13.2
												c-2.2-3.2-3.9-6.2-5-9.1c-1.7-4.2-2.3-8-1.9-11.5c0.1-0.5,0.1-0.9,0.2-1.4c1.2-5.6,5-9.7,9.8-12.7c0.5-0.4,1.1-0.7,1.6-1
												c8.9-4.9,19.8-6.3,21.6-6.6l0.1,0c0.1,0,0.1,0,0.1,0l0.2,0l0.1,0.1c0.1,0.1,1.8,1.9,3.9,5.9c0,0.1,0.1,0.2,0.1,0.3
												c1.4,2.8,2.9,6.4,4.1,10.8c2.3,8.5,3.8,20.1,2.4,35.5C685.9,500.8,678.5,524.7,671.1,527.4z"/>
										</g>
									</g>
								</g>
							</g>
						</g>
					</g>
				</g>
				<g>
					<g>
						<path class="st13" d="M618.8,432.7c-1.6,3-4.1,5.8-7.6,8.2c-2.5,1.8-5.6,3.4-9.1,4.9c-5.4,2.2-10,4.7-14,7.2
							c0.2-16.9,4.2-40.5,6.8-53.7c0.3-0.2,0.6-0.4,0.9-0.5c3.9-2.2,6.4-2.8,6.5-2.9l0.2,0l0.1,0.1c0,0,0,0,0.1,0.1l0,0
							c1.5,1.2,9.9,8.3,14.7,17.2c0.2,0.4,0.4,0.7,0.6,1.1L618.8,432.7z"/>
					</g>
				</g>
				<g>
					<g>
						<path class="st13" d="M682,424.2c-4.7,11.8-14,34.2-23.1,49.2c-1.9-4.2-4.5-8.6-7.7-13.2c-2.2-3.2-3.9-6.2-5-9.1
							c-1.7-4.2-2.3-8-1.9-11.5l10-14.1c0.5-0.4,1.1-0.7,1.6-1c8.9-4.9,19.8-6.3,21.6-6.6l0.1,0c0.1,0,0.1,0,0.1,0l0.2,0l0.1,0.1
							c0.1,0.1,1.8,1.9,3.9,5.9C681.9,424,682,424.1,682,424.2z"/>
					</g>
				</g>
				<g>
					<g>
						<g>
							<g>
								<g>
									<g>
										<g>
											<g>
												<path class="st5" d="M678.5,418.7c-1.8,3.4-3.6,6.6-5.3,9.7c-8.2,14.3-14.7,25.6-20.6,34.2c-1.6,2.3-3.1,4.3-4.6,6.2
													c0,0.1-0.1,0.1-0.1,0.2c-0.3,0.3-0.5,0.6-0.8,0.9c-0.3,0.4-0.6,0.7-0.9,1l0,0c-0.3,0.3-0.6,0.7-0.9,1
													c-0.3,0.3-0.6,0.6-0.9,0.9c-0.3,0.3-0.6,0.6-0.9,0.9c-0.6,0.6-1.2,1.1-1.8,1.7c-0.3,0.3-0.6,0.5-0.9,0.8
													c0,0,0,0-0.1,0.1c-0.6,0.5-1.1,0.9-1.7,1.3c-0.3,0.2-0.6,0.4-0.9,0.6c-0.4,0.2-0.8,0.5-1.1,0.7
													c-0.2,0.1-0.5,0.3-0.7,0.4c0,0,0,0,0,0c-0.3,0.2-0.6,0.3-0.9,0.5c0,0,0,0,0,0c-0.3,0.1-0.6,0.3-0.9,0.4
													c0,0-0.1,0-0.1,0.1c-0.3,0.1-0.6,0.3-0.9,0.4c-1.9,0.8-3.9,1.3-5.9,1.5c-3.1,0.4-6.4,0.2-10.1-0.5l0,0.1
													c-0.1-0.1-0.3-0.1-0.4-0.2c-0.1,0-0.3-0.1-0.5-0.1l0-0.1c-0.1,0-0.1-0.1-0.2-0.1c-3.4-1.4-6.2-3.1-8.5-5
													c-1.9-1.6-3.4-3.4-4.7-5.4c-3.7-5.9-5.2-13.7-5.5-24.3c-0.3-10.5,0.5-23.7,1.5-40.4c0.2-3.4,0.5-6.9,0.8-10.6
													c0.1-1.3,0.2-2.6,0.4-3.9c0.4-3.7,0.8-7.6,1.4-11.5c0.6-4.8,1.3-9.6,2.2-14.6c0.3-2.1,0.7-4.3,1.1-6.4
													c0.4-2.1,0.8-4.2,1.2-6.3c0.2-0.9,0.3-1.7,0.5-2.6c0.3-1.4,0.6-2.9,0.9-4.3c0.6-2.9,1.2-5.8,1.9-8.7
													c0.3-1.4,0.7-2.9,1-4.3c0-0.1,0-0.2,0.1-0.2c0.5-2.1,1-4.3,1.6-6.4c0-0.1,0-0.1,0-0.2c0.4-1.4,0.7-2.8,1.1-4.2l0.1-0.2
													c2.4-9.3,5.2-18.4,8.2-27c0.2-0.7,0.5-1.3,0.7-2c0.2-0.7,0.5-1.3,0.7-2c0.7-2,1.4-3.9,2.2-5.8c0.5-1.3,1-2.5,1.5-3.7
													c0.8-1.9,1.5-3.7,2.3-5.5c1.3-3,2.6-5.9,4-8.6c0.5-1,1-2.1,1.6-3.1c0.1-0.1,0.1-0.2,0.2-0.3c0.5-1,1.1-2,1.6-2.9
													c0-0.1,0.1-0.1,0.1-0.2c0.3-0.5,0.5-0.9,0.8-1.4c0.3-0.5,0.5-1,0.8-1.4c0-0.1,0.1-0.1,0.1-0.2c0.3-0.4,0.5-0.9,0.8-1.3
													c0.3-0.5,0.6-1,0.9-1.4c0.3-0.5,0.6-0.9,0.9-1.4c0.5-0.8,1.1-1.6,1.6-2.4c0.8-1.1,1.5-2.1,2.3-3.1
													c2.6-3.5,5.4-6.5,8.2-8.9c0.4-0.4,0.8-0.7,1.2-1.1c0.4-0.4,0.8-0.7,1.2-1c0.3-0.2,0.6-0.5,0.8-0.7
													c1.4-1.2,2.8-2.4,4.1-3.4c0.5-0.4,1-0.8,1.4-1.2c0.5-0.4,0.9-0.7,1.3-1.1c0.6-0.4,1.1-0.9,1.6-1.3
													c0.1-0.1,0.2-0.2,0.3-0.3c0.3-0.2,0.6-0.5,0.9-0.7c1.2-0.9,2.3-1.8,3.4-2.6c0.4-0.3,0.8-0.6,1.2-0.8
													c0.4-0.3,0.8-0.6,1.3-0.9c0.2-0.2,0.5-0.3,0.7-0.5c0.3-0.2,0.5-0.4,0.8-0.5c0.4-0.3,0.8-0.5,1.2-0.8
													c0.3-0.2,0.6-0.4,0.9-0.6c1.5-0.9,2.9-1.8,4.2-2.5c0.4-0.2,0.8-0.4,1.2-0.6c0,0,0.1,0,0.1-0.1c0.4-0.2,0.8-0.4,1.2-0.6
													c0.5-0.2,1-0.5,1.5-0.7c0.3-0.1,0.5-0.2,0.8-0.3c0.6-0.2,1.1-0.4,1.6-0.6c0.2-0.1,0.3-0.1,0.5-0.2
													c0.2-0.1,0.3-0.1,0.5-0.1c2.2-0.7,4.2-1,6-1.1c0.1,0,0.3,0,0.4,0c0.1,0,0.3,0,0.4,0c0.1,0,0.3,0,0.4,0
													c0.1,0,0.3,0,0.4,0c0.4,0,0.8,0.1,1.2,0.1c0,0,0.1,0,0.1,0c0.1,0,0.1,0,0.2,0l0-0.1c0.1,0.1,0.3,0.1,0.4,0.2
													c0.2,0,0.3,0,0.4,0.1l0,0.1c0.4,0.2,0.7,0.4,1.1,0.6c0.3,0.2,0.7,0.4,1,0.6c0.9,0.6,1.9,1.3,2.8,2.2
													c0.1,0.1,0.1,0.1,0.2,0.2c0.3,0.3,0.6,0.6,0.8,0.9c0.1,0.1,0.2,0.2,0.3,0.3c0.7,0.7,1.3,1.5,2,2.4
													c0.1,0.1,0.2,0.3,0.3,0.4c0,0.1,0.1,0.1,0.2,0.2c0.2,0.2,0.3,0.4,0.5,0.7c0.1,0.1,0.2,0.3,0.3,0.4
													c0.2,0.3,0.3,0.5,0.5,0.8c0,0,0,0,0,0.1c0.2,0.3,0.4,0.6,0.5,0.9c0.7,1.2,1.4,2.5,2.2,4c0.2,0.4,0.4,0.7,0.5,1.1
													c0.3,0.6,0.6,1.2,0.8,1.8c0.1,0.2,0.2,0.4,0.3,0.6c0.2,0.4,0.4,0.9,0.6,1.3c0.3,0.6,0.5,1.2,0.8,1.9
													c0.1,0.1,0.1,0.3,0.2,0.4c0.3,0.7,0.5,1.3,0.8,2.1c0.2,0.4,0.3,0.9,0.5,1.4c0.1,0.3,0.2,0.6,0.3,0.8
													c0.3,0.8,0.6,1.6,0.8,2.4c1.5,4.4,3.1,9.5,4.8,15.4c1,3.6,1.7,7.6,2,12l0,0c0.1,1.3,0.2,2.5,0.2,3.8c0,0.9,0,1.7,0,2.6
													C722.2,317.5,699.4,379.2,678.5,418.7z"/>
											</g>
										</g>
									</g>
								</g>
							</g>
						</g>
					</g>
				</g>
				<g class="st14">
					<g>
						<g>
							<path class="st0" d="M710.1,258.9c-2.1,16.1-4.1,32.3-6.8,48.3c-2.6,16-5.8,31.8-10.2,47.4c-4.3,15.5-9.8,30.8-16.8,45.3
								c-7.1,14.6-15.7,28.4-24,42.3c-4.2,6.9-8.3,13.8-12.5,20.7c-3.9,6.5-8,13-12.9,18.8c-1.2,1.5-2.5,2.9-3.9,4.3
								c-1.3,1.3,0.7,3.5,2,2.1c10.8-11.3,18.2-25.4,26.2-38.7c8.5-14.1,17.3-28.1,24.8-42.7c7.5-14.4,13.4-29.6,18-45.2
								c4.7-15.7,8.2-31.8,11-47.9c2.8-16.1,5-32.4,7.1-48.6c0.3-2,0.5-4.1,0.8-6.1C713.3,257.1,710.4,257.1,710.1,258.9
								L710.1,258.9z"/>
						</g>
					</g>
				</g>
				<g class="st2">
					<polygon class="st6" points="618.1,474.9 435.2,666.9 666.2,735.6 					"/>
				</g>
				<g class="st14">
					<g>
						<g>
							<path class="st0" d="M658.9,247.1c-11.5,10.2-18,24.6-24.8,38.1c-7.5,15-14.8,30.4-19.1,46.7c-2.2,8.2-3.3,16.5-4.3,24.9
								c-0.9,8.4-2.2,16.7-3.8,25c-1.5,8.2-2.6,16.4-2.7,24.8c-0.1,8.2,0.3,16.4,0.8,24.6c1,16.6,2.1,33.3,4.2,49.8
								c0.3,2.1,0.6,4.2,0.9,6.3c0.3,1.8,3.1,1.1,2.8-0.7c-2.4-16.3-3.6-32.8-4.6-49.3c-1-16.3-2.3-32.7,0.4-48.9
								c1.3-8.2,3.1-16.3,4.1-24.5c1-8.3,1.7-16.6,3.4-24.8c3.4-16.3,10.2-31.7,17.5-46.7c3.5-7.1,6.9-14.2,10.7-21.1
								c3.5-6.5,7.5-12.9,12.5-18.4c1.2-1.3,2.6-2.6,3.9-3.8C662.3,248,660.3,245.9,658.9,247.1L658.9,247.1z"/>
						</g>
					</g>
				</g>
				<g class="st14">
					<g>
						<g>
							<path class="st0" d="M672.5,241.1c-9,14.1-16.1,29.3-22,44.9c-5.9,15.7-10.6,31.8-15,47.9c-4.7,16.9-9.4,33.8-13.3,50.9
								c-3.7,16.5-6.4,33.1-8,49.9c-1.7,16.8-2.3,33.8-1.9,50.7c0,2.1,0.1,4.2,0.2,6.3c0.1,1.9,3,1.9,2.9,0
								c-0.6-16.8-0.3-33.6,1.1-50.3c1.4-16.7,3.8-33.4,7.2-49.9c3.6-17.1,8.2-33.9,12.8-50.7c4.4-16.1,8.9-32.2,14.5-47.9
								c5.5-15.7,12.1-31,20.7-45.2c1.1-1.8,2.2-3.6,3.3-5.3C676,241,673.5,239.5,672.5,241.1L672.5,241.1z"/>
						</g>
					</g>
				</g>
				<g class="st14">
					<g>
						<g>
							<path class="st0" d="M692.2,247.8c-2.7,16.3-5.4,32.6-8.1,48.9c-2.7,16.1-5.2,32.3-8.7,48.3c-3.3,15.5-7.5,30.7-12.4,45.8
								c-5,15.1-10.7,30-17.2,44.6c-6.5,14.5-13.7,28.7-21.7,42.5c-1,1.7-2,3.4-3,5.1c-1,1.6,1.5,3.1,2.5,1.5
								c8.2-13.7,15.6-27.9,22.3-42.4c6.7-14.4,12.6-29.2,17.7-44.2c5.2-15.1,9.6-30.5,13.2-46.1c3.7-15.9,6.3-31.9,9-48
								c2.7-16.4,5.4-32.7,8.2-49.1c0.3-2,0.7-4,1-6C695.3,246.8,692.5,245.9,692.2,247.8L692.2,247.8z"/>
						</g>
					</g>
				</g>
				<g class="st14">
					<g>
						<g>
							<path class="st0" d="M681.8,246.9c-10.1,32.6-20.1,65.3-29.8,98.1c-9.6,32.6-18.7,65.3-26.8,98.3
								c-4.6,18.5-8.9,37.1-12.8,55.7c-0.4,1.8,2.4,2.6,2.8,0.8c7-33.4,15.3-66.6,24.2-99.5c8.9-32.8,18.5-65.4,28.4-97.9
								c5.5-18.2,11.2-36.5,16.8-54.7C685.2,245.9,682.4,245.1,681.8,246.9L681.8,246.9z"/>
						</g>
					</g>
				</g>
				<g>
					<g>
						<g>
							<g>
								<g>
									<g>
										<g>
											<g>
												<path class="st13" d="M622.4,493l-17.4-5.2c-4.8-1.4-7.6-6.5-6.1-11.3v0c1.4-4.8,6.5-7.6,11.3-6.1l17.4,5.2
													c4.8,1.4,7.6,6.5,6.1,11.3l0,0C632.3,491.7,627.2,494.5,622.4,493z"/>
											</g>
										</g>
									</g>
								</g>
							</g>
						</g>
					</g>
				</g>
				<g>
					<g>
						<g>
							<g>
								<g>
									<g>
										<g>
											<g>
												
													<ellipse transform="matrix(0.7344 -0.6787 0.6787 0.7344 -34.0612 535.8259)" class="st3" cx="667.6" cy="311.4" rx="28.7" ry="28.7"/>
											</g>
										</g>
									</g>
								</g>
							</g>
						</g>
					</g>
				</g>
				<g class="st2">
					<g>
						<g>
							<g>
								<path class="st0" d="M682.7,315.9c-2.4,8.3-11.2,13.1-19.5,10.7c-8.3-2.4-13.1-11.2-10.7-19.5c2.4-8.3,11.2-13.1,19.5-10.7
									C680.4,298.8,685.2,307.5,682.7,315.9z"/>
							</g>
						</g>
					</g>
				</g>
				<g>
					<g>
						<g>
							<g>
								<g>
									<g>
										<path class="st3" d="M642.3,399.2c-6.2-1.9-20.8,33.7-31.4,69.1c-6.1,20.3-10.7,40.2-12.7,54.4
											c-1.8,12.9-1.4,19.9,1.2,20.7c1.9,0.6,4.6-2.2,8-8.3l0,0c6.8-11.9,15.7-35.2,23.3-60.8C641.3,438.8,648.5,401,642.3,399.2
											z"/>
									</g>
								</g>
							</g>
						</g>
					</g>
				</g>
				<g>
					<g>
						<g>
							<g>
								<g>
									<g>
										<g>
											<g>
												<path class="st3" d="M721.8,271.1l-77.4-23c2.7-3.5,5.4-6.5,8.2-8.9c23.8-20.8,34.8-25,43.2-24l0-0.1
													c0.1,0.1,0.3,0.1,0.4,0.2c0.2,0,0.3,0,0.5,0.1l0,0.1c7.6,3.8,14.5,13.2,23.1,43.7C720.8,262.7,721.5,266.7,721.8,271.1z
													"/>
											</g>
										</g>
									</g>
								</g>
							</g>
						</g>
					</g>
				</g>
				<g>
					<g>
						<path class="st13" d="M720.5,278.2l-1.7-0.5l0.3-1l1.7,0.5L720.5,278.2z M714.9,276.6l-3.9-1.2l0.3-1l3.9,1.2L714.9,276.6z
							 M707,274.3l-3.9-1.2l0.3-1l3.9,1.2L707,274.3z M699.1,271.9l-3.9-1.2l0.3-1l3.9,1.2L699.1,271.9z M691.2,269.6l-3.9-1.2
							l0.3-1l3.9,1.2L691.2,269.6z M683.3,267.3l-3.9-1.2l0.3-1l3.9,1.2L683.3,267.3z M675.4,265l-3.9-1.2l0.3-1l3.9,1.2L675.4,265z
							 M667.5,262.7l-3.9-1.2l0.3-1l3.9,1.2L667.5,262.7z M659.6,260.4l-3.9-1.2l0.3-1l3.9,1.2L659.6,260.4z M651.7,258.1l-3.9-1.2
							l0.3-1l3.9,1.2L651.7,258.1z M643.8,255.8l-3.9-1.2l0.3-1l3.9,1.2L643.8,255.8z"/>
					</g>
				</g>
			</g>
			<g id="man_1">
				<g>
					<g>
						<path class="st15" d="M307.5,396.2l-70.8,92.6c-13.1,33.6-26.2,67.2-39.3,100.8l-38.8-7.3c9.1-37.4,18.2-74.9,27.2-112.3
							c0.6-2.6,1.7-5,3.3-7.1l70.5-98.5c11.1-15.5,33.5-16.8,46.4-2.8h0C314.7,371.3,315.4,385.9,307.5,396.2z"/>
					</g>
				</g>
				<g>
					<g>
						<g>
							<path class="st15" d="M172.4,557.9c0,0-22.2,22.4-25.4,32.3c-3.2,9.9,33.6,29.2,36.6,29.7c3,0.5,18-42.6,18-42.6L172.4,557.9
								z"/>
						</g>
					</g>
					<g>
						<g>
							<path class="st15" d="M196,589c0,0-3,20.1-4,26.1c-1,6-10,22.9-11.1,28.9c-1,6-6.5,2-7.2-2.8c-0.7-4.7,2.3-13.5,1.8-19.7
								C175,615.3,196,589,196,589z"/>
						</g>
					</g>
					<g>
						<g>
							<path class="st15" d="M186.6,605.4c-3.3,3.6-8,9.5-11.4,17.8c-1.6,3.9-2.4,7-3.6,11.7c-3.6,13.9-3.8,22.8-7.3,23.4
								c-0.7,0.1-1.3-0.2-1.5-0.3c-1-0.5-2.6-2-2.6-11.3c0-4.3,0.3-7.5,0.4-8.3c0.5-5.1,1.2-9.4,2.1-14.4c-0.8,1.4-1.8,3.6-2.7,6.5
								c-0.9,2.8-1.3,5.6-2,11.2c-1.3,9.9-1.7,12.9-4.2,14.7c-0.5,0.3-1.8,1.3-3.3,1c-1.8-0.4-3.2-2.4-3.7-5.3c0,0-6.5,1.9-8.4-4.6
								c-1.9-6.5,0.4-10.7,2.8-24.2c-1.7,4.1-2.7,7.6-3.4,10.2c-0.9,3.6-1.4,6.5-2.8,6.8c-1.1,0.2-2.3-1.2-2.6-1.6
								c-2.1-2.6-2-6.2-1.2-11.1c0.7-4.6,2.4-14,9.6-27.6c0,0,0,0,0,0c1.2-2.9,2.8-6.1,4.9-9.5c3.1-5.2,6.5-9.3,9.5-12.5
								C165.6,587.2,176.1,596.3,186.6,605.4z"/>
						</g>
					</g>
					<g>
						<g>
							<path class="st16" d="M170.8,637.9c0.5-2.6,1.2-5.1,2-7.5c0.8-2.5,1.7-4.9,2.7-7.2c1-2.4,2.2-4.7,3.5-6.9
								c1.3-2.3,2.7-4.4,4.1-6.6c-1.8,1.9-3.6,3.9-5,6.1c-1.5,2.2-2.7,4.5-3.8,6.9c-1.1,2.4-1.9,4.9-2.5,7.5
								C171.2,632.6,170.8,635.2,170.8,637.9z"/>
						</g>
					</g>
					<g>
						<g>
							<path class="st16" d="M146.6,651.3c0.9-5.3,1.7-10.6,2.7-15.9c0.5-2.6,1.1-5.2,1.8-7.8l1.1-3.9l0.6-1.9l0.3-1l0.2-0.5
								l0.1-0.2c0-0.1,0.1-0.2,0.1,0c0,0,0-0.1,0-0.1c0,0-0.1,0.1-0.1,0.1l-0.1,0.2l-0.2,0.4l-0.4,0.9l-0.8,1.8
								c-0.5,1.2-1,2.5-1.5,3.8c-1,2.6-1.6,5.2-2.1,7.9C147,640.5,146.5,645.9,146.6,651.3z"/>
						</g>
					</g>
					<g>
						<g>
							<path class="st16" d="M195.1,595.2c0.3,0.1,0.7-0.1,0.8-0.4c0.1-0.3,2.3-7.5-5.6-16.6c-0.2-0.3-0.7-0.3-0.9-0.1
								c-0.3,0.2-0.3,0.7-0.1,0.9c7.4,8.6,5.4,15.3,5.4,15.4C194.5,594.7,194.7,595.1,195.1,595.2C195,595.2,195,595.2,195.1,595.2z
								"/>
						</g>
					</g>
				</g>
				<g>
					<g>
						<path class="st17" d="M300.8,423.2c0.3,3.4-1.9,8.9-5.5,15.4c-13.7,24.6-48.4,64.2-48.4,64.2c-11.7-2.2-21.2-8.3-28.8-15.6
							c-1.7-1.7-3.3-3.4-4.8-5.1c-1.1-1.2-2.1-2.5-3-3.8c-4-5.1-7.2-10.4-9.7-15.2c-0.9-1.7-1.7-3.3-2.4-4.8
							c-3.5-7.5-5.1-12.9-5.1-12.9C259.5,324.4,300.8,345,300.8,345S299.3,407,300.8,423.2z"/>
					</g>
				</g>
				<g>
					<g>
						<path class="st8" d="M295.3,438.6c-13.7,24.6-48.3,64.2-48.3,64.2c-11.7-2.3-21.2-8.3-28.8-15.7
							c37.2-33.5,69.4-93.4,69.4-93.4L295.3,438.6z"/>
					</g>
				</g>
				<g>
					<g>
						<path class="st15" d="M389.1,352.7c33-21.3,66-42.6,99.1-63.9c-15.4-34.6-30.8-69.3-46.3-103.9c13.5-6.6,27.1-13.3,40.6-19.9
							c9.1,11.8,21.7,29.3,34.9,51.5c27.4,46.5,41.1,69.8,38.4,90.7c0,0-127.3,105.3-127.3,105.3l0,0
							C415.3,392.6,402.2,372.7,389.1,352.7z"/>
					</g>
				</g>
				<g>
					<g>
						<path class="st17" d="M528.5,348.6c-10.1,10.2-22.1,21-35.9,31.9c-15.1,11.9-29.6,21.6-42.8,29.5c-5.4-1.9-12-4.6-19.1-8.5
							c-5.2-2.9-10.7-6.4-16.3-10.7c-9.8-7.5-17.3-15.7-23.1-23.2c-0.8-1.1-1.6-2.1-2.4-3.2c-4.5-6.2-7.7-12-10-16.4
							c11.4-8.7,24.1-17.7,38.4-26.6c20.3-12.6,39.7-22.5,57.2-30.3c0,0,7.3,2.7,16.5,8.2c1.3,0.8,2.7,1.7,4.1,2.6
							c5,3.3,10.3,7.4,15.2,12.2c1.1,1.1,2.1,2.2,3.2,3.3c7.2,8,13,17.9,14.8,29.8C528.4,347.8,528.5,348.2,528.5,348.6z"/>
					</g>
				</g>
				<g>
					<g>
						<path class="st8" d="M528.5,348.6c-10.2,10.2-22.1,21-35.9,31.9c-15.1,11.9-29.6,21.6-42.8,29.5c-5.4-1.9-12-4.6-19.1-8.5
							c-1-3.5,0.2-6.3,4.8-7.7c17.3-5.3,66.3-31.8,92.8-46.4C528.4,347.8,528.5,348.2,528.5,348.6z"/>
					</g>
				</g>
				<g>
					<g>
						<g>
							<path class="st15" d="M458.6,193.8c-3.9,0.5-11.1,0.9-19.3-1.9c-3.5-1.2-11.2-3.8-16.7-10.5c-2.6-3.2-2.9-5.1-6.3-7.7
								c-2.9-2.2-5.7-3.1-6.5-6c-0.1-0.3-0.6-2.2,0.3-3.5c1.5-2.1,5.8-1.3,7.2-1.1c6.8,1.3,8.2,5.4,15.1,8.6c5.9,2.7,7.5,1,12.1,3
								C449,176.5,454.6,181.2,458.6,193.8z"/>
						</g>
					</g>
					<g>
						<g>
							<path class="st15" d="M484.6,170.1c-3-10.2-6.2-18.5-8.8-24.7c-8.7-20.6-13.1-22.6-15.9-22.9c-3.4-0.4-6.5,1.6-8.8,3.5
								c0,0-12.3-5.3-15.9,8.8c0,0-10.6-3.5-12.3,7c0,0-10.6,0-8.8,8.8c1.8,8.8,33.4,47.6,33.4,47.6c3.8-0.2,12.5-1.1,21.2-7.1
								C479.6,183.9,483.5,173.6,484.6,170.1z"/>
						</g>
					</g>
					<g>
						<g>
							<path class="st16" d="M428.6,170.2c-5.8,0-14.3-16.5-16-20c-0.2-0.4,0-1,0.4-1.2c0.4-0.2,1,0,1.2,0.4
								c4.2,8.5,11.6,20,14.8,18.9c4.8-1.6,6.5-8.1,6.5-8.2l0.2-0.8l0.9,0.2c0.3,0.1,6.6,1.5,11.4-5l0.4-0.5l0.6,0.2
								c0.2,0.1,4.7,1.3,9.5-6.7l0.3-0.5l0.6,0.1c0.1,0,5.6,0.8,8.3-2c1.3-1.3,1.7-3.3,1.3-5.8c-1.7-10.2-6.6-15.1-6.6-15.2
								c-0.3-0.3-0.3-0.9,0-1.2c0.3-0.3,0.9-0.3,1.2,0c0.2,0.2,5.3,5.4,7.1,16.1c0.5,3.1-0.1,5.6-1.8,7.3c-2.8,2.8-7.6,2.7-9.2,2.6
								c-4.5,7.2-9,7.3-10.7,7.1c-4.5,5.6-10,5.6-12.1,5.3c-0.7,2-2.7,7.1-7.4,8.6C429.2,170.2,428.9,170.2,428.6,170.2z"/>
						</g>
					</g>
					<g>
						<g>
							<path class="st16" d="M436.2,161.3c-0.3,0-0.6-0.1-0.7-0.4l-10.6-15.9c-0.3-0.4-0.2-1,0.2-1.2c0.4-0.3,1-0.2,1.2,0.2
								l10.6,15.9c0.3,0.4,0.2,1-0.2,1.2C436.5,161.3,436.4,161.3,436.2,161.3z"/>
						</g>
					</g>
					<g>
						<g>
							<path class="st16" d="M448.5,156c-0.3,0-0.6-0.2-0.8-0.4L437.2,138c-0.3-0.4-0.1-1,0.3-1.2c0.4-0.3,1-0.1,1.2,0.3l10.6,17.6
								c0.2,0.4,0.1,1-0.3,1.2C448.9,156,448.7,156,448.5,156z"/>
						</g>
					</g>
					<g>
						<g>
							<path class="st16" d="M459.1,149c-0.3,0-0.6-0.2-0.8-0.4L447.8,131c-0.3-0.4-0.1-1,0.3-1.2c0.4-0.3,1-0.1,1.2,0.3l10.6,17.6
								c0.3,0.4,0.1,1-0.3,1.2C459.4,149,459.3,149,459.1,149z"/>
						</g>
					</g>
					<g>
						<g>
							<path class="st16" d="M430.7,173.5c-0.2,0-0.5-0.1-0.6-0.3c-0.3-0.3-0.3-0.9,0-1.2c0.1-0.1,13.2-12.5,32.9-3.5
								c0.4,0.2,0.6,0.7,0.4,1.2c-0.2,0.4-0.7,0.6-1.2,0.4c-18.6-8.4-30.4,2.7-30.9,3.2C431.2,173.4,430.9,173.5,430.7,173.5z"/>
						</g>
					</g>
					<g>
						<g>
							<path class="st16" d="M477.6,184c-0.1,0-0.3,0-0.4-0.1c-0.4-0.2-0.6-0.8-0.3-1.2c7.6-13.7,3.8-22.3,3.8-22.4
								c-0.2-0.4,0-1,0.4-1.2c0.4-0.2,1,0,1.2,0.4c0.2,0.4,4.2,9.4-3.8,24C478.2,183.8,477.9,184,477.6,184z"/>
						</g>
					</g>
				</g>
				<g>
					<g>
						<path class="st18" d="M380.5,229.1c-2-0.6-28.1-7.3-42.4,7.6c-1.6,1.7-5.8,6.1-6.9,13c-1.8,10.6,4.4,22,15.7,29.8
							c2.8-5.5,5.6-9.5,7.6-12.2c3.5-4.7,5.7-6.7,9.9-12.2c2.9-3.9,5.1-7.2,6.4-9.3C374.1,240.2,377.3,234.6,380.5,229.1z"/>
					</g>
				</g>
				<g>
					<g>
						<path class="st19" d="M241.8,607.7c0,0,106.3,17.7,224.3-7.4l-21.1-200.3l-179.7,23.2L241.8,607.7z"/>
					</g>
				</g>
				<g>
					<g>
						<g>
							<polygon class="st15" points="313.9,857.3 307.5,921.1 261.8,916.5 267.5,858.6 							"/>
						</g>
					</g>
					<g>
						<g>
							<path class="st5" d="M318.1,945.7H230v-8.4l0.2-0.2c1.4-1.4,3.4-3.3,5.8-5.3c9.3-7.6,15.9-7,21.3-12.5
								c2.4-2.4,5.3-6.7,6.2-14.6c5-2.1,9.2-2.2,11.5-2c2.3,0.1,4.5,0.3,6.9,1.8c4.3,2.7,5.3,7.7,5.5,9c0.5,0.5,2.1,2.1,4.6,2.3
								c0.4,0,2.2,0.2,4-0.7c3.7-1.9,2.9-6.2,5.9-8.9c1.3-1.1,3.8-2.3,8.9-1.5c1.6,10.8,3.3,21.7,4.9,32.5c0,0.1,0,0.2,0,0.2
								L318.1,945.7z"/>
						</g>
					</g>
					<g>
						<g>
							<path class="st19" d="M318.1,945.7H230v-8.4l0.2-0.2h85.4c0,0.1,0,0.2,0,0.2L318.1,945.7z"/>
						</g>
					</g>
					<g>
						<g>
							<path class="st19" d="M286.8,925c-0.1,0-0.3,0-0.4-0.1c-15.7-11.4-28.6-4.5-28.8-4.4c-0.3,0.2-0.8,0.1-0.9-0.3
								c-0.2-0.3-0.1-0.8,0.3-0.9c0.1-0.1,13.9-7.5,30.3,4.5c0.3,0.2,0.4,0.7,0.2,1C287.2,924.9,287,925,286.8,925z"/>
						</g>
					</g>
				</g>
				<g>
					<g>
						<g>
							<polygon class="st15" points="405.8,858.2 414.5,921.8 460.1,915.5 452.2,857.9 							"/>
						</g>
					</g>
					<g>
						<g>
							<path class="st5" d="M402.7,945.7h88.1v-8.4l-0.2-0.2c-1.4-1.4-3.4-3.3-5.8-5.3c-9.3-7.6-15.9-7-21.3-12.5
								c-2.4-2.4-5.3-6.7-6.2-14.6c-5-2.1-9.2-2.2-11.5-2c-2.3,0.1-4.5,0.3-6.9,1.8c-4.3,2.7-5.3,7.7-5.5,9
								c-0.5,0.5-2.1,2.1-4.6,2.3c-0.4,0-2.2,0.2-4-0.7c-3.7-1.9-2.9-6.2-5.9-8.9c-1.3-1.1-3.8-2.3-8.9-1.5
								c-1.6,10.8-3.3,21.7-4.9,32.5c0,0.1,0,0.2,0,0.2L402.7,945.7z"/>
						</g>
					</g>
					<g>
						<g>
							<path class="st19" d="M402.7,945.7h88.1v-8.4l-0.2-0.2h-85.4c0,0.1,0,0.2,0,0.2L402.7,945.7z"/>
						</g>
					</g>
					<g>
						<g>
							<path class="st19" d="M434,925c-0.2,0-0.4-0.1-0.6-0.3c-0.2-0.3-0.2-0.7,0.2-1c16.4-11.9,30.1-4.5,30.3-4.5
								c0.3,0.2,0.5,0.6,0.3,0.9c-0.2,0.3-0.6,0.5-0.9,0.3c-0.1-0.1-13.1-7-28.8,4.4C434.2,924.9,434.1,925,434,925z"/>
						</g>
					</g>
				</g>
				<g>
					<g>
						<path class="st20" d="M466.2,880.7h-76.3l-3.1-21.5l-35.2-240.7l-27.3,239.9l-2.5,22.2h-69.9c0.4-7.4,0.9-14.8,1.3-22.2
							c5.1-88.4,10.2-176.8,15.3-265.2c0.6-10.1,1.2-20.2,1.7-30.4c0.3-5.6,0.6-11.1,1-16.7c0.1-1.1,0.1-2.3,0.2-3.4
							c15,0.1,29.9,0.3,44.9,0.4c23.5,0.2,47.1,0.4,70.6,0.7c14,0.1,28,0.3,42,0.4c0.2,1.5,0.3,3.1,0.5,4.6c0.3,3.2,0.7,6.4,1.1,9.6
							c1.2,10.3,2.3,20.6,3.4,30.9c10,90,20,179.9,30,269.8C464.6,866.4,465.4,873.6,466.2,880.7z"/>
					</g>
				</g>
				<g>
					<g>
						<path class="st7" d="M455.3,881.5c-0.4,0-0.7-0.3-0.7-0.6l-29.7-286c0-0.4,0.2-0.7,0.6-0.8c0.4,0,0.7,0.2,0.8,0.6l29.7,286
							C456.1,881.1,455.8,881.4,455.3,881.5C455.4,881.5,455.3,881.5,455.3,881.5z"/>
					</g>
				</g>
				<g>
					<g>
						<path class="st7" d="M257.3,881.5C257.3,881.5,257.3,881.5,257.3,881.5c-0.4,0-0.7-0.4-0.7-0.8l18.2-290.6
							c0-0.4,0.3-0.7,0.8-0.7c0.4,0,0.7,0.4,0.7,0.8L258,880.8C258,881.2,257.7,881.5,257.3,881.5z"/>
					</g>
				</g>
				<g>
					<g>
						<path class="st7" d="M430.4,558.5l-160.2,4.4c0.4-6.7,0.8-13.4,1.2-20.1c52.5,0.5,105,1,157.5,1.5
							C429.3,549.1,429.9,553.8,430.4,558.5z"/>
					</g>
				</g>
				<g>
					<g>
						<path class="st21" d="M437.7,549.1l-8.4-0.1l-42.6-0.7l-70.6-1.2l-45-0.8l-5.4-0.1c0.8-15.6,1.6-31.1,2.4-46.6
							c2.1-41.9,4.2-83.9,6.4-125.8c0.8-15.9,12.3-29.4,28-32.5c14.4-2.9,31.3-5,50.1-5.1c31.3-0.2,57.1,5.1,75.3,10.3
							c0.8,16.8,1.7,33.5,2.5,50.3C432.7,447.6,435.2,498.3,437.7,549.1z"/>
					</g>
				</g>
				<g>
					<g>
						<path class="st8" d="M321.8,400.1l-5.6,143.2l-0.2,3.8l-1.9,48.5l-45.8-2.2c0.6-10.1,1.2-20.2,1.7-30.4
							c0.3-5.6,0.6-11.1,1-16.7l-5.4-0.1c0.8-15.6,1.6-31.1,2.4-46.6L321.8,400.1z"/>
					</g>
				</g>
				<g>
					<g>
						<path class="st8" d="M430.4,558.5c1.2,10.3,2.3,20.6,3.4,30.9h-48.4l1.3-41.2l0.1-4.3l6.1-156l37.3,8.9
							c2.5,50.8,5,101.5,7.5,152.3l-8.4-0.1C429.7,552.1,430,555.3,430.4,558.5z"/>
					</g>
				</g>
				<g>
					<g>
						<path class="st17" d="M466.1,600.3l-15.4-0.3l-4.5-0.1l-21.1-0.5l-4.5-0.1l-6.5-0.1l-17.4-0.4c-1.8-86.5-3.5-173-5.3-259.6
							c4.9-1.3,11.4-2.3,18.9-1.7c0.8,0.1,1.5,0.1,2.3,0.2c1.4,0.2,2.8,0.4,4.2,0.7c1.5,0.3,3.1,0.7,4.5,1.1
							c9.8,2.8,17.6,7.9,23.3,12.9c1.7,1.5,3.3,3,4.7,4.4c3.2,3.2,5.3,6,6.4,7.4L466.1,600.3z"/>
					</g>
				</g>
				<g>
					<g>
						<path class="st15" d="M382.6,338.3c-4.3,12.1-8.7,24.1-13,36.2c-13.2-11.5-26.4-22.9-39.6-34.4c6.9-18.9,13.9-37.8,20.8-56.7
							c2.7,1.2,5.6,2.4,8.6,3.6c0.6,0.2,1.2,0.5,1.8,0.7c2.9,1.1,5.7,2.1,8.4,3c1.2,4.5,2.4,9.1,3.7,13.6c1.4,5,2.7,10.1,4.1,15.1
							c1,3.7,2,7.5,3,11.2C381.2,333.2,381.9,335.8,382.6,338.3z"/>
					</g>
				</g>
				<g>
					<g>
						<path class="st16" d="M377.5,319.4c-6.6-1-12.6-4.3-16.9-9.4c-6.7-8.1-6.3-17.6-6.1-19.8c2.3-0.8,4.5-1.6,6.8-2.5
							c2.9,1.1,5.7,2.1,8.4,3c1.2,4.5,2.4,9.1,3.7,13.6C374.8,309.3,376.2,314.3,377.5,319.4z"/>
					</g>
				</g>
				<g>
					<g>
						<path class="st15" d="M345.6,283.5c0.4,2.9,1.2,5.6,2.8,8.2c2.9,4.6,7,6.7,12.2,9.2c7.4,3.6,12.2,5.8,18.3,4.6
							c1.8-0.4,6.9-1.7,10.7-6.1c2.9-3.4,3.5-9.4,4.6-21.4c0.4-4.6,0.6-8.5-0.4-13.2c-0.1-0.5-0.7-3-1.8-5.9
							c-2.8-8-8.5-19.1-18.6-20.9c-8.6-1.5-15.6,4.6-17.1,5.9C341.9,256.3,344.8,278.2,345.6,283.5z"/>
					</g>
				</g>
				<g>
					<g>
						<path class="st15" d="M346.2,267.5c0,0-10-10.7-12.9-0.4c-2.9,10.3-0.5,18.1,12.4,15.9C345.8,283,356.2,280.7,346.2,267.5z"/>
					</g>
				</g>
				<g>
					<g>
						<path class="st19" d="M364.3,268.8c0.4,1.8,1.7,2.9,3,2.7c1.3-0.3,2-1.9,1.6-3.7c-0.4-1.8-1.7-2.9-3-2.7
							C364.6,265.4,363.9,267,364.3,268.8z"/>
					</g>
				</g>
				<g>
					<g>
						<path class="st19" d="M386.7,263.1c0.4,1.8,1.7,3,2.9,2.7c1.2-0.3,1.9-1.9,1.6-3.7c-0.4-1.8-1.7-3-2.9-2.7
							C387.1,259.7,386.4,261.3,386.7,263.1z"/>
					</g>
				</g>
				<g>
					<g>
						<path class="st16" d="M382.2,280.1c-1,0-1.9-0.1-2.9-0.4c-0.4-0.1-0.6-0.6-0.5-1c0.1-0.4,0.5-0.6,1-0.5c1.5,0.5,3,0.5,4.4,0.1
							c1.5-0.4,1.8-0.6,1.9-0.8c0-0.3-1.1-1-1.8-1.4c-0.6-0.4-1.3-0.9-1.9-1.4c-2.5-2.1-4.1-5.5-4.7-10.1c-0.1-0.4,0.2-0.8,0.7-0.9
							c0.4,0,0.8,0.2,0.9,0.7c0.5,4.2,1.9,7.2,4.2,9.1c0.5,0.5,1.2,0.9,1.8,1.3c1.4,0.9,2.7,1.8,2.4,3c-0.2,1.3-1.9,1.7-3,2
							C383.7,280,383,280.1,382.2,280.1z"/>
					</g>
				</g>
				<g>
					<g>
						<path class="st22" d="M369.1,258.4c-2.8-1.5-6.3,0.4-8,1.4c-3.9,2.1-7,5.5-6.6,6.2c0.4,0.5,2.5-1.2,8-2.9
							c4.8-1.5,7.9-1.7,8-2.9C370.7,259.2,369.4,258.5,369.1,258.4z"/>
					</g>
				</g>
				<g>
					<g>
						<path class="st22" d="M388.7,252.6c-2.2-1.4-5,0.5-6.4,1.4c-3.1,2.1-5.6,5.6-5.3,6.2c0.3,0.5,2-1.2,6.4-3
							c3.8-1.5,6.3-1.8,6.4-3C390,253.4,388.9,252.7,388.7,252.6z"/>
					</g>
				</g>
				<g>
					<g>
						<path class="st16" d="M342.4,278.8c-1.8,0-3.5-0.7-4.7-2c-1.1-1.2-1.6-2.6-1.5-4.1c0.2-2.4,2.2-4.4,4.8-5
							c0.4-0.1,0.8,0.2,0.9,0.6c0.1,0.4-0.2,0.8-0.6,0.9c-1.9,0.4-3.4,1.9-3.6,3.6c-0.1,1,0.3,2.1,1.1,2.9c0.9,1,2.3,1.6,3.6,1.5
							c0,0,0,0,0,0c0.4,0,0.8,0.3,0.8,0.8C343.2,278.5,342.9,278.8,342.4,278.8z"/>
					</g>
				</g>
				<g>
					<g>
						<path class="st0" d="M373.1,287.6c0,0,7.2,5.9,12.1-2.5L373.1,287.6z"/>
					</g>
				</g>
				<g>
					<g>
						<path class="st0" d="M372.9,382.2l-50.8-43.9c-0.3-0.3-0.3-0.7-0.1-1c0.3-0.3,0.7-0.3,1-0.1l49.2,42.5l13.4-41.1
							c0.1-0.4,0.5-0.6,0.9-0.5c0.4,0.1,0.6,0.5,0.5,0.9L372.9,382.2z"/>
					</g>
				</g>
				<g>
					<g>
						<path class="st18" d="M350.8,243.6c1.7,3,34.5,11.7,44.9-5.8c10.5-17.4-12-24.2-27.6-7.7L350.8,243.6z"/>
					</g>
				</g>
				<g>
					<g>
						<path class="st18" d="M368.2,225.5c0,0,4.7-7-12.1-13.1c-16.8-6.1-9.2,19.8-9.2,19.8s-26-19.8-30.5-4.6
							c-4.6,15.3,24.4,13.7,24.4,13.7s-32.1,12.2-18.3,16.8c13.7,4.6,21.4-9.2,21.4-9.2L368.2,225.5z"/>
					</g>
				</g>
				<g>
					<g>
						<path class="st7" d="M324.3,858.5l-2.5,22.2h-69.9c0.4-7.4,0.9-14.8,1.3-22.2H324.3z"/>
					</g>
				</g>
				<g>
					<g>
						<path class="st7" d="M466.2,880.7h-76.3l-3.1-21.5h77.1C464.6,866.4,465.4,873.6,466.2,880.7z"/>
					</g>
				</g>
				<g>
					<g>
						<path class="st0" d="M376.3,391.6c0,1.3-1,2.3-2.3,2.3c-1.3,0-2.3-1-2.3-2.3s1-2.3,2.3-2.3
							C375.3,389.3,376.3,390.4,376.3,391.6z"/>
					</g>
				</g>
				<g>
					<g>
						<path class="st0" d="M376.3,403.7c0,1.3-1,2.3-2.3,2.3c-1.3,0-2.3-1-2.3-2.3c0-1.3,1-2.3,2.3-2.3
							C375.3,401.5,376.3,402.5,376.3,403.7z"/>
					</g>
				</g>
				<g>
					<g>
						<path class="st17" d="M327.8,336.3c-8.1,85.9-16.2,171.8-24.3,257.6c-6.4,0.7-13.2,1.7-20.2,3c-4.6,0.8-9.4,1.8-14.3,3
							c-1.5,0.4-3,0.7-4.6,1.1c-0.6,0.2-1.2,0.3-1.8,0.5c-3.7,1-7.3,2-10.8,3c-1.5,0.5-3.1,0.9-4.5,1.4c-1.9,0.6-3.7,1.2-5.5,1.8
							l10.3-163.3c0.2-19.2,3.4-49.4,20.7-80.1c0.3-0.5,0.5-0.9,0.8-1.3c1.1-2,2.3-3.9,3.4-5.7c0.7-1.1,1.5-2.2,2.3-3.2
							c3.6-4.6,8.1-8.2,13.2-10.7c1.4-0.7,2.8-1.3,4.3-1.8c2.3-0.8,4.7-1.4,7.1-1.8l8.3-1.2L327.8,336.3z"/>
					</g>
				</g>
			</g>
			<g id="man">
				<g>
					<g>
						<g>
							<g>
								<polygon class="st21" points="944.4,882.8 945.7,954 996.7,953.1 995.6,888.5 								"/>
							</g>
						</g>
						<g>
							<g>
								<path class="st3" d="M1014.6,982.9H880v-9.3c2.1-1.5,5.2-3.8,9.3-6.2c13.8-8.2,22.5-9.1,32.5-13.9c6.3-3,14.7-8.4,23.2-18.6
									c0,0,7.6,0.2,7.6,0.2h0.1c4.7,0.1,9.1,2.6,11.6,6.6l3.4,5.3c1.5,2.3,4.3,3.4,7,2.6c1.9-0.5,3.4-1.9,4.1-3.8
									c2.1-5.7,7.6-9.5,13.7-9.5h0.4c1.1,0,2.1,0.1,3.2,0.1l14.8,37.2L1014.6,982.9z"/>
							</g>
						</g>
						<g>
							<g>
								<polygon class="st19" points="1014.6,982.9 880,982.9 880,973.6 1010.9,973.6 								"/>
							</g>
						</g>
						<g>
							<g>
								<path class="st19" d="M950.8,966.3c0.1,0,0.2,0,0.2,0c0.3-0.1,0.5-0.5,0.4-0.8c-0.1-0.2-6.5-15.4-23.9-13.9
									c-0.4,0-0.6,0.3-0.6,0.7c0,0.4,0.3,0.6,0.7,0.6c16.4-1.4,22.4,12.5,22.6,13.1C950.3,966.1,950.6,966.3,950.8,966.3z"/>
							</g>
						</g>
					</g>
					<g>
						<g>
							<g>
								<polygon class="st21" points="809.3,882.8 810.6,954 861.6,953.1 860.5,888.5 								"/>
							</g>
						</g>
						<g>
							<g>
								<path class="st3" d="M879.5,982.9H745v-9.3c2.1-1.5,5.2-3.8,9.3-6.2c13.8-8.2,22.5-9.1,32.5-13.9c6.3-3,14.7-8.4,23.2-18.6
									c0,0,7.6,0.2,7.6,0.2h0.1c4.7,0.1,9.1,2.6,11.6,6.6l3.4,5.3c1.5,2.3,4.3,3.4,7,2.6c1.9-0.5,3.4-1.9,4.1-3.8
									c2.1-5.7,7.6-9.5,13.7-9.5h0.4c1.1,0,2.1,0.1,3.2,0.1l14.8,37.2L879.5,982.9z"/>
							</g>
						</g>
						<g>
							<g>
								<polygon class="st19" points="879.5,982.9 745,982.9 745,973.6 875.8,973.6 								"/>
							</g>
						</g>
						<g>
							<g>
								<path class="st19" d="M815.7,966.3c0.1,0,0.2,0,0.2,0c0.3-0.1,0.5-0.5,0.4-0.8c-0.1-0.2-6.5-15.4-23.9-13.9
									c-0.4,0-0.6,0.3-0.6,0.7c0,0.4,0.3,0.6,0.7,0.6c16.4-1.4,22.4,12.5,22.6,13.1C815.3,966.1,815.5,966.3,815.7,966.3z"/>
							</g>
						</g>
					</g>
				</g>
				<g>
					<g>
						<polygon class="st5" points="819.8,574.2 806.9,780.1 798.4,922.2 869.5,921.6 893.5,748.7 926.7,571.1 						"/>
					</g>
				</g>
				<g>
					<g>
						<path class="st5" d="M987.6,566.4V733l17.6,188.6h-65.2l-40.5-201.2c-6.7-50.3-13.4-100.6-20.1-150.9
							C915.6,568.5,951.6,567.4,987.6,566.4z"/>
					</g>
				</g>
				<g>
					<g>
						<path class="st10" d="M1000.3,923c0.2,0,0.4,0,0.6-0.1c0.7-0.3,1-1.2,0.7-1.9c-28.1-58.8-35.7-314.3-35.7-316.9
							c0-0.8-0.7-1.5-1.5-1.4c-0.8,0-1.4,0.7-1.4,1.5c0.3,10.5,7.7,258.6,36,318C999.2,922.7,999.7,923,1000.3,923z"/>
					</g>
				</g>
				<g>
					<g>
						<path class="st10" d="M854.4,919.9c0.7,0,1.3-0.5,1.4-1.2L892,643c0.1-0.8-0.4-1.5-1.2-1.6c-0.8-0.1-1.5,0.5-1.6,1.2
							l-36.2,275.6c-0.1,0.8,0.4,1.5,1.2,1.6C854.2,919.9,854.3,919.9,854.4,919.9z"/>
					</g>
				</g>
				<g>
					<g>
						<path class="st23" d="M782.4,479.3c-7.2,5.2-13.2,6.9-16.8,7.6c-4.7,0.9-10.7,2.1-16.4-1c-7.8-4.2-11.7-14.4-9.6-22.5
							c1-3.9,3.4-6.3,3.8-7.1c21.7-40.3,50.1-87,58.7-99.5c15.5-22.7,32-20.9,32-20.9c3.6-1,6.3-0.7,8.2,0.7
							c13.3,9.4-13.9,65.8-37.7,115C802.6,456.2,795.8,469.8,782.4,479.3z"/>
					</g>
				</g>
				<g>
					<g>
						<path class="st3" d="M742.8,439c0,0,7.1,3.4,19.1,7.6c9.5,3.3,22,7,36.6,9.8c7,1.4,14.5,2.5,22.4,3.3c0,0,1.9-4.5,4.9-11.9
							c0.6-1.5,1.2-3,1.9-4.7c1.5-3.7,3.2-7.9,5-12.4c5.1-12.9,11.2-28.5,16.7-43.7l0,0c1-2.7,1.9-5.4,2.9-8
							c0.6-1.6,1.1-3.1,1.6-4.7c6.3-18.2,11.2-34.4,11.6-42.4c0,0-4.4-1.6-11.5-2.5c0,0-0.1,0-0.1,0c-2-0.3-4.1-0.5-6.5-0.6h0
							c-8.8-0.3-20,0.9-31.5,6.3c-0.1,0-0.2,0.1-0.2,0.1c-5.8,2.7-11.7,6.6-17.3,11.9c-1.2,1.1-2.4,2.3-3.6,3.6
							c-1.5,1.6-2.9,3.2-4.4,5c-10.3,12.7-18.8,25.9-25.8,37.9c-1.2,2-2.3,4-3.3,6C748.9,421.9,742.8,439,742.8,439z"/>
					</g>
				</g>
				<g>
					<g>
						<path class="st24" d="M760.6,443l1.3,3.6c14.1,4.9,34.9,10.7,58.9,13.1c0,0,5.1-12.2,11.8-29.1c2-13.5,3-31.2-0.3-51.3
							c-1.2-7.5-2.9-14.3-4.7-20.4c-10.6,10.4-21.8,22.4-33,36.2C780.9,411.9,769.7,428.2,760.6,443z"/>
					</g>
				</g>
				<g>
					<g>
						<polygon class="st5" points="987.7,588.8 987.6,520.7 818.1,524 816.7,599.9 						"/>
					</g>
				</g>
				<g>
					<g>
						<path class="st25" d="M813.5,553.7c3.9,0.5,7.8,1,11.7,1.4c6.6,0.7,13.3,1.4,20.2,2.1c14,1.3,28.5,2.2,43.5,2.9
							c37,1.5,71.3,0.7,102.2-1.6c-8.4-75.4-16.8-150.9-25.1-226.3c-16.6-2.9-35.6-5.1-56.6-5.9c-28.7-1-54.2,1.1-75.4,4.3
							C827.1,405,820.3,479.3,813.5,553.7z"/>
					</g>
				</g>
				<g>
					<g>
						<path class="st26" d="M825.2,555.2c6.6,0.7,13.3,1.4,20.2,2l1.1-181.1l-15.7,28.3L825.2,555.2z"/>
					</g>
				</g>
				<g>
					<g>
						<path class="st27" d="M879.9,376.5l66.8-39.7c0.4-0.2,0.5-0.7,0.3-1c-0.2-0.4-0.7-0.5-1-0.3l-65.3,38.8l-17.4-46
							c-0.1-0.4-0.6-0.6-1-0.4c-0.4,0.1-0.6,0.6-0.4,1L879.9,376.5z"/>
					</g>
				</g>
				<g>
					<g>
						<path class="st3" d="M777.3,604.1c5.4,1.9,10.2,3.3,14.6,4.4c1.9,0.4,3.6,0.8,5.3,1.1c27.4,4.7,34.5-7.5,34.5-7.5l3.5-42.4
							l0.3-3.3l0.1-1.4l5.5-68.2l2.5-31.1l0.4-4.6l1-12.7l4.2-51.3l0,0l0.7-8.1l0.4-4.7l3.7-44.9c0,0,0,0,0,0c0,0-0.1,0-0.1,0
							c-1.8-0.5-4-0.6-6.5-0.6h-0.1c-4.2,0.1-9,0.8-13.6,1.7c0,0,0,0,0,0c-1,0.2-2,0.4-3,0.6c-7.5,1.6-13.8,3.6-14.9,3.9
							c-0.1,0-0.1,0-0.1,0c0,0,0,0,0,0L800,445.1l-1.6,11.3l-0.8,5.7l-0.7,4.7l-4.5,31.6l-4,28.3l-0.7,4.7L777.3,604.1z"/>
					</g>
				</g>
				<g>
					<g>
						<path class="st26" d="M831.6,466.6c0,0,84.9,47.2,106.9,50.3c22,3.1-33-64.4-33-64.4l-80.2-18.8L831.6,466.6z"/>
					</g>
				</g>
				<g>
					<g>
						<path class="st3" d="M929.8,613.5c0,0,2.7,0.8,7.4,2c1.5,0.4,3.2,0.8,5.1,1.2c17.6,4.1,50.4,10.1,75.6,4.6l-2.9-30.3l-0.5-5
							l-4.9-52l-0.4-4.7l-3.4-35.8l-0.4-4.4v0l-3-31.9L991.1,339c0,0-2.8-1-7.7-2.5c-1.4-0.4-3.1-0.9-4.9-1.4
							c-2.9-0.9-6.3-1.8-10.1-2.8h0c-8.7-2.2-17.9-3.1-30.7-4.1l-0.3,2.3l-0.8,28.3l-0.1,4.8l-2.2,79.4l-1.1,40.3v0l0,1.1
							c0,0,0,0,0,0l-0.8,31.5l-1.1,40.7l-0.1,4.1l0,1.3v0L929.8,613.5z"/>
					</g>
				</g>
				<g>
					<g>
						<path class="st24" d="M934.5,443l-2,72.9c26.3,9.5,43.6,8.5,55,2.4c10.1-5.4,15.5-14.9,18.3-24.7l-3.4-36.3
							c-7.1-1.9-14.1-3.6-20.9-5.2C964.7,448.2,949.1,445.2,934.5,443z"/>
					</g>
				</g>
				<g>
					<g>
						<path class="st24" d="M792.4,498.5c9-4.2,16.4-8.6,26.2-10.8c6.2-1.4,13.4-1.9,22.6-1l3.9-48.4c-8.3,0.6-15.9,1.4-22.9,2.5
							c-8.2,1.2-15.6,2.8-22.2,4.5L792.4,498.5z"/>
					</g>
				</g>
				<g>
					<g>
						<path class="st21" d="M926.7,487.2c0,3.9,0.1,7.7,0.4,11.5c9,4.4,16.9,6.9,22.6,8.4c15.1,4,19.5,2,21,1.2
							c2.9-1.6,4.6-4,7.9-8.8c3.9-5.7,5.9-10.7,6.3-11.8c13-33.4,30.8-111.2,20.4-126.7c-3.8-5.8-9-10.7-9-10.7
							c-3.5-3.4-5.3-5.1-6.5-5.4c-12.1-3.1-42.7,62.1-53.8,99.4C930.3,462.9,926.7,479.1,926.7,487.2z"/>
					</g>
				</g>
				<g>
					<g>
						<path class="st21" d="M813.5,409.2c-2.8-1.1-20.5-7.3-38.9,2.2c-16.4,8.5-21.5,23.7-23.5,28c-1.6,3.3-6.3,23-1.6,24.7
							c4.7,1.6,13.2-26.8,13.2-26.8c5,0.4,11.9,0.4,19.8-1.2c7.9-1.6,14.3-4.3,18.8-6.6C805.4,422.7,809.4,415.9,813.5,409.2z"/>
					</g>
				</g>
				<g>
					<g>
						<path class="st21" d="M914.6,445.6c-59.7,21.2-105.9,35.9-130.3,43.1c0,0-29.3,9-41.5-2.1c-2.7-2.4-4.5-4.9-5.7-7.4
							c-2.1-4.6-2.1-9.3-0.8-13.9c1.3-4.3,3.7-8.5,6.7-12.4c9.5-12.5,23.1-20.5,37.8-23.3l9.2-1.8c39.1-5.1,78.1-10.2,117.2-15.3
							c3.2-0.4,6.5,0.7,8.9,3c2.6,2.4,5.2,5.3,7.7,8.9c2.9,4.2,4.7,6.8,4.3,9.9C927.4,440.6,918,444.4,914.6,445.6z"/>
					</g>
				</g>
				<g>
					<g>
						<path class="st21" d="M789.7,429.4c23.5,18.1,52.5,37.3,87.1,54.5c18,8.9,35.2,16.2,51.4,22.2c0,0,29,12.3,42.7,2.5
							c3-2.1,5.1-4.4,6.6-6.8c2.7-4.4,3.2-9.1,2.3-13.9c-3.3-17.8-26-36-26-36l-24.8-7.5c-39.8-12.4-79.7-24.7-119.5-37.1
							c-4,3.5-8.3,7.8-12.6,12.9C794.1,423.3,791.7,426.4,789.7,429.4z"/>
					</g>
				</g>
				<g>
					<g>
						<path class="st28" d="M753.3,434.4c0.3,0,0.6-0.2,0.7-0.4c17.2-38.2,58.8-24.9,59.2-24.8l66.8,21.9c0.4,0.1,0.8-0.1,0.9-0.5
							c0.1-0.4-0.1-0.8-0.5-0.9l-66.8-21.9c-0.4-0.1-43.3-13.8-61.1,25.6c-0.2,0.4,0,0.8,0.4,1C753.1,434.3,753.2,434.4,753.3,434.4
							z"/>
					</g>
				</g>
				<g>
					<g>
						<path class="st28" d="M846.9,466.7c0.2,0,0.5-0.1,0.6-0.4c0.2-0.3,0.1-0.8-0.2-1l-57.9-35.7c-0.7-0.2-17.3-5.1-42.8,18
							c-0.3,0.3-0.3,0.7-0.1,1c0.3,0.3,0.7,0.3,1,0.1c24-21.7,40-18,41.3-17.7l57.7,35.5C846.6,466.7,846.8,466.7,846.9,466.7z"/>
					</g>
				</g>
				<g>
					<g>
						<path class="st3" d="M939.2,437.5c3.9,6.8,10.7,17.1,21.6,27.1c1.1,1,2.3,2,3.5,3c2.4,2,4.9,4,7.6,5.9
							c12.6,8.8,24.7,13.4,33.3,15.8c0,0,0-0.1,0.1-0.2v0c0.8-2.2,7.6-22.2,13.6-44.8c0.4-1.6,0.9-3.3,1.3-4.9
							c4.9-19.2,8.9-39.5,7.9-51.8c-0.1-1.7-0.4-3.3-0.7-4.7c0-0.2-0.1-0.3-0.1-0.5c-1.9-6.6-7.7-26.4-26.7-39.3
							c-5.5-3.7-11-6.2-16.2-7.8h0c-1.7-0.5-3.3-1-4.9-1.4c-4.2-1-8-1.5-11-1.7h0c-0.9-0.1-1.8-0.1-2.5-0.1
							c-1.4,5.4-2.8,10.9-4.1,16.3c-0.5,2.1-1.1,4.1-1.6,6.2C953.2,382.3,946.3,409.9,939.2,437.5z"/>
					</g>
				</g>
				<g>
					<g>
						<path class="st28" d="M881.9,430.4c0,0,36.2,48.7,47.2,53.4c11,4.7,40.9,6.3,39.3,0c-1.6-6.3,10.3-9.3-1.1-26.6
							C955.7,439.8,881.9,430.4,881.9,430.4z"/>
					</g>
				</g>
				<g>
					<g>
						<path class="st19" d="M938.6,427.1c0.3,0,0.6-0.2,0.7-0.5l28.2-72c0.1-0.4,0-0.8-0.4-1c-0.4-0.1-0.8,0-1,0.4l-28.2,72
							c-0.1,0.4,0,0.8,0.4,1C938.4,427.1,938.5,427.1,938.6,427.1z"/>
					</g>
				</g>
				<g>
					<g>
						<g>
							<path class="st21" d="M914.2,411.2c7.1,1.7,15.6,4.3,24.8,8.5c6.1,2.8,11.3,5.7,15.7,8.4c0.8,0.5,1,1.4,0.4,2.1
								c-3.2,4-8,8.8-14.6,13.4c-11.9,8.2-24.1,11.5-31.2,12.8c-4.8-3.9-9.8-8.1-14.9-12.7c-4.8-4.3-9.2-8.6-13.2-12.7
								c0.3-1.8,1.9-9.6,10.2-15.3C901.2,409.1,912.6,410.9,914.2,411.2z"/>
						</g>
					</g>
					<g>
						<g>
							<path class="st21" d="M951.3,427.6c2.1-0.5,4.4,0.3,5.4,2c6.4,11.3,19.5,35.1,18.7,39.6c-0.1,0.7-0.4,2.5-1.7,2.8
								c-1.2,0.3-2.7-0.8-3.4-1.4c-7-5.8-19.3-21.9-19-21.4l0,0c3.1,5.4,7.7,13.5,13.9,24.2c2.9,5.1,5.4,9.6,3.4,11.3
								c-1.8,1.5-6.4,0.2-9.4-0.9c0,0-2,6-13.8-1.5l-5.9-4.5c0,0,3.9,4.5-2,6c-5.9,1.5-31.6-31.6-31.6-31.6c3.8-3.7,8.8-8,15.3-12
								C932.1,433.4,943,429.7,951.3,427.6z"/>
						</g>
					</g>
					<g>
						<g>
							<path class="st28" d="M959.7,484.8c0.2,0,0.3,0,0.4-0.1c0.3-0.2,0.4-0.7,0.2-1l-19.9-26.9c-0.2-0.3-0.7-0.4-1-0.2
								c-0.3,0.2-0.4,0.7-0.2,1l19.9,26.9C959.2,484.7,959.4,484.8,959.7,484.8z"/>
						</g>
					</g>
				</g>
				<g>
					<g>
						<path class="st3" d="M854.4,329.3c0,0,0.1,0,0.1,0c19.6-2.8,82.6-0.1,83.2-0.1c0.4,0,0.8-0.3,0.8-0.7c0-0.4-0.3-0.8-0.7-0.8
							c-0.6,0-63.8-2.7-83.5,0.1c-0.4,0.1-0.7,0.4-0.6,0.8C853.7,329,854,329.3,854.4,329.3z"/>
					</g>
				</g>
				<g>
					<g>
						<g>
							<path class="st17" d="M877.4,238.2c10.4-14.7,29.7-19.8,45.3-12.3c17.3,8.3,23.6,29,17.8,45.3c-4.6,13.1-16.9,22.7-31.6,24.7
								C898.4,276.6,887.9,257.4,877.4,238.2z"/>
						</g>
					</g>
					<g>
						<g>
							<path class="st21" d="M879.6,334.7c2.5,8.2,4.9,16.5,7.4,24.7c7.2-3.3,14.5-6.9,22-10.8c6.6-3.4,13-6.8,19.1-10.3
								c-5.3-17.9-10.5-35.7-15.8-53.6c-2.7,1.1-5.6,2.1-8.6,3.1c-3.5,1.2-6.9,2.2-10.1,3.1c-0.5,1.6-1,3.2-1.5,4.8
								c-0.8,2.6-1.7,5.1-2.5,7.7c-1.8,5.6-3.6,11.3-5.4,16.9c-0.8,2.4-1.6,4.9-2.3,7.3C881.1,330,880.4,332.4,879.6,334.7z"/>
						</g>
					</g>
					<g>
						<g>
							<path class="st28" d="M884.2,320.4c12.9-5.7,23.3-24.5,23.3-24.5h-15.4c-0.8,2.6-1.7,5.1-2.5,7.7
								C887.9,309.1,886,314.8,884.2,320.4z"/>
						</g>
					</g>
					<g>
						<g>
							<path class="st21" d="M870.1,284.5c1.3,10.1,2.1,16.3,6.8,20.3c4.5,3.9,10,3.6,15.3,3.3c4.1-0.2,10.9-0.6,16.8-6.1
								c4.1-3.7,5.7-8.1,8.6-17.1c4-12.5,7.3-22.7,2.4-29c-2.3-2.9-3.7-1.6-8.2-5.5c-7.3-6.4-5.8-11.9-11-15.1
								c-5.4-3.3-14.4-1.7-19.2,2.7c-1,0.9-1.8,1.9-6.6,15.3c-0.4,1-0.7,2.1-1.1,3.2c-0.3,0.9-0.6,1.9-1,2.9
								c-1.6,4.6-1.7,5.1-1.9,5.7C870.3,267.4,868.7,274.2,870.1,284.5z"/>
						</g>
					</g>
					<g>
						<g>
							<path class="st21" d="M920.7,269c0,0,10.1-10.1,12.6,0c2.5,10.1,0,17.7-12.6,15.2C920.7,284.1,910.6,281.6,920.7,269z"/>
						</g>
					</g>
					<g>
						<g>
							<path class="st19" d="M899.7,270.2c-0.4,1.7-1.9,2.8-3.2,2.5c-1.3-0.3-2.1-2-1.6-3.7c0.4-1.7,1.9-2.8,3.2-2.5
								C899.4,266.8,900.1,268.5,899.7,270.2z"/>
						</g>
					</g>
					<g>
						<g>
							<path class="st19" d="M877.8,263.9c-0.4,1.7-1.8,2.8-3.1,2.5c-1.3-0.3-2-2-1.6-3.7c0.4-1.7,1.8-2.8,3.1-2.5
								C877.6,260.6,878.3,262.2,877.8,263.9z"/>
						</g>
					</g>
					<g>
						<g>
							<path class="st28" d="M924.3,279.9c1.7,0,3.2-0.7,4.4-1.8c1.1-1.1,1.6-2.5,1.5-3.8c-0.1-2.3-1.9-4.3-4.4-4.9
								c-0.3-0.1-0.6,0.1-0.7,0.4c-0.1,0.3,0.1,0.6,0.4,0.7c2,0.5,3.4,2.1,3.5,3.8c0.1,1-0.4,2.1-1.2,2.9c-1,1-2.3,1.5-3.7,1.5
								c-0.3,0-0.6,0.2-0.6,0.6c0,0.3,0.2,0.6,0.6,0.6C924.1,279.9,924.2,279.9,924.3,279.9z"/>
						</g>
					</g>
					<g>
						<g>
							<path class="st17" d="M911.7,245.1c0,0-34.3,16.5-41.2-4.1c-6.9-20.6,15.1-31.6,31.6-11L911.7,245.1z"/>
						</g>
					</g>
					<g>
						<g>
							<path class="st17" d="M913,246.4c0,0,2.2,19,3.2,29.2c0,0,9.2-9.5,11.9-17.1C930.9,251,913,246.4,913,246.4z"/>
						</g>
					</g>
					<g>
						<g>
							<path class="st8" d="M893.8,256.1c1.7,0.1,4.6,0.5,7.7,2.2c4.3,2.4,6.5,5.8,7.4,7.4c0,0.5,0,0.9,0,1.4
								c-1.4-1.2-3.2-2.7-5.7-3.9c-3.7-1.9-7.1-2.6-9.4-2.9V256.1z"/>
						</g>
					</g>
					<g>
						<g>
							<path class="st8" d="M873.8,256.7c0.2,0,0.4,0,0.6,0c4.2-0.2,7.6,0.6,9.8,1.3l1.7-3.7c-1.6-0.6-4.4-1.4-7.9-1.2
								c-1.1,0.1-2.1,0.2-3,0.5C874.6,254.5,874.2,255.6,873.8,256.7z"/>
						</g>
					</g>
					<g>
						<g>
							<path class="st0" d="M894.7,285.4c-6.3,8.7-12.2,2.2-13.6,2.3L894.7,285.4z"/>
						</g>
					</g>
					<g>
						<g>
							<path class="st28" d="M881.7,282.2c1,0,1.9-0.1,2.9-0.4c0.4-0.1,0.6-0.6,0.5-1c-0.1-0.4-0.5-0.7-0.9-0.5
								c-1.5,0.4-3,0.5-4.4,0.1c-1.5-0.4-1.8-0.7-1.9-0.9c0-0.3,1.1-1,1.8-1.5c0.6-0.4,1.3-0.9,1.9-1.4c2.6-2.2,4.2-5.7,4.9-10.4
								c0.1-0.4-0.2-0.8-0.6-0.9c-0.4-0.1-0.8,0.2-0.9,0.7c-0.6,4.3-2,7.5-4.3,9.4c-0.6,0.5-1.2,0.9-1.8,1.3c-1.4,1-2.7,1.8-2.5,3.1
								c0.2,1.3,1.9,1.8,3,2.1C880.1,282,880.9,282.2,881.7,282.2z"/>
						</g>
					</g>
				</g>
				<g>
					<g>
						<path class="st10" d="M900.1,723.9c0.1,0,0.1,0,0.2,0c0.8-0.1,1.4-0.8,1.3-1.6l-10-93.6c-0.1-0.8-0.8-1.4-1.6-1.3
							c-0.8,0.1-1.4,0.8-1.3,1.6l10,93.6C898.8,723.3,899.4,723.9,900.1,723.9z"/>
					</g>
				</g>
				<g>
					<g>
						<path class="st28" d="M974.2,464.8c0.1,0,0.2,0,0.3-0.1c0.4-0.2,0.6-0.6,0.4-1c-0.5-1.3-13.5-31.4-20-36
							c-6.4-4.5-23.4-12.8-24.1-13.1c-0.4-0.2-0.8,0-1,0.3c-0.2,0.4,0,0.8,0.3,1c0.2,0.1,17.6,8.5,23.9,13
							c6.2,4.4,19.3,35.1,19.5,35.4C973.7,464.7,973.9,464.8,974.2,464.8z"/>
					</g>
				</g>
			</g>
		</g>
	</g>
	<g>
		<g>
			<g>
				<path class="st27" d="M701.5,640.8C701.5,640.8,701.5,640.8,701.5,640.8c0.3,0,0.5-0.3,0.5-0.6c-0.1-0.6-6.2-57.2-26.8-80.7
					c-0.2-0.2-0.5-0.2-0.7,0c-0.2,0.2-0.2,0.5,0,0.7c20.4,23.3,26.5,79.6,26.5,80.2C701,640.6,701.2,640.8,701.5,640.8z"/>
			</g>
		</g>
		<g>
			<g>
				<path class="st27" d="M698.4,618.1c0.2,0,0.3-0.1,0.4-0.2c0.1-0.2,0.1-0.6-0.2-0.7c-0.2-0.1-15.8-9.8-25.6-13.3
					c-0.3-0.1-0.6,0-0.7,0.3c-0.1,0.3,0,0.6,0.3,0.7c9.7,3.5,25.3,13.1,25.4,13.2C698.2,618,698.3,618.1,698.4,618.1z"/>
			</g>
		</g>
		<g>
			<g>
				<path class="st27" d="M691.3,592.8c0.2,0,0.4-0.1,0.4-0.3c0.1-0.2,11.2-20.1,14.1-24.1c0.2-0.2,0.1-0.5-0.1-0.7
					c-0.2-0.2-0.5-0.1-0.7,0.1c-2.9,4.1-13.7,23.4-14.2,24.2c-0.1,0.2,0,0.6,0.2,0.7C691.1,592.8,691.2,592.8,691.3,592.8z"/>
			</g>
		</g>
		<g>
			<g>
				<path class="st1" d="M681.7,602.3c0,4.9-6.4,8.9-14.3,8.9c-7.9,0-14.3-4-14.3-8.9c0-4.9,6.4-8.9,14.3-8.9
					C675.3,593.4,681.7,597.4,681.7,602.3z"/>
			</g>
		</g>
		<g>
			<g>
				<ellipse class="st1" cx="713.8" cy="563.8" rx="14.3" ry="8.9"/>
			</g>
		</g>
		<g>
			<g>
				<path class="st1" d="M685.4,559.8c2.6,5.7,1.3,11.9-2.9,13.8c-4.2,1.9-9.7-1.1-12.4-6.8c-2.6-5.7-1.3-11.9,2.9-13.8
					C677.3,551.1,682.8,554.1,685.4,559.8z"/>
			</g>
		</g>
		<g>
			<g>
				<path class="st9" d="M731.6,579c0,2.5-3.3,4.6-7.4,4.6c-4.1,0-7.4-2.1-7.4-4.6c0-2.5,3.3-4.6,7.4-4.6
					C728.3,574.4,731.6,576.4,731.6,579z"/>
			</g>
		</g>
		<g>
			<g>
				<path class="st9" d="M665.4,615.7c0,1.4-1.8,2.5-3.9,2.5c-2.2,0-3.9-1.1-3.9-2.5c0-1.4,1.8-2.5,3.9-2.5
					C663.7,613.2,665.4,614.3,665.4,615.7z"/>
			</g>
		</g>
		<g>
			<g>
				<path class="st9" d="M629.4,661.1h119.2c0.1-0.8,0.2-1.6,0.3-2.4c0,0,7.9-14.9,0-22.4c-7.8-7.4-28-0.1-28.6,0.1c0,0,0,0,0,0
					s-5.9-14.4-31.6-5.5c-25,8.6-17.2,13.3-16.8,13.6c-0.8-0.1-24.9-4.5-39.5,11.5C630.9,657.6,629.9,659.3,629.4,661.1z"/>
			</g>
		</g>
	</g>
	<g>
		<path class="st27" d="M1078,664.1H81c-0.8,0-1.5-0.7-1.5-1.5c0-0.8,0.7-1.5,1.5-1.5h997c0.8,0,1.5,0.7,1.5,1.5
			C1079.5,663.5,1078.8,664.1,1078,664.1z"/>
	</g>
</g>
</svg>
